<?xml version="1.0" encoding="UTF-8"?>
<!-- Generated by jsxcad -->
<!DOCTYPE svg PUBLIC "-//W3C//DTD SVG 1.1 Tiny//EN" "http://www.w3.org/Graphics/SVG/1.1/DTD/svg11-tiny.dtd">
<svg baseProfile="tiny" height="10 mm" width="20 mm" viewBox="0 0 20 10" version="1.1" stroke="black" stroke-width=".1" fill="none" xmlns="http://www.w3.org/2000/svg">
<path d="M19.9487 2.5 L19.9487 0 L19.91035 2.5 z"/>
<path d="M19.91035 2.5 L19.9487 0 L19.7953 0 z"/>
<path d="M19.91035 2.5 L19.7953 0 L19.7953 2.5 z"/>
<path d="M19.83365 7.5 L19.7953 10 L19.9487 10 z"/>
<path d="M19.83365 7.5 L19.9487 10 L19.9487 7.5 z"/>
<path d="M19.7953 7.5 L19.7953 10 L19.83365 7.5 z"/>
<path d="M19.7953 2.5 L19.7953 0 L19.73182 2.5 z"/>
<path d="M19.73182 2.5 L19.7953 0 L19.5414 0 z"/>
<path d="M19.73182 2.5 L19.5414 0 L19.5414 2.5 z"/>
<path d="M19.60488 7.5 L19.5414 10 L19.7953 10 z"/>
<path d="M19.60488 7.5 L19.7953 10 L19.7953 7.5 z"/>
<path d="M19.5414 7.5 L19.5414 10 L19.60488 7.5 z"/>
<path d="M19.5414 2.5 L19.5414 0 L19.45345 2.5 z"/>
<path d="M19.45345 2.5 L19.5414 0 L19.1896 0 z"/>
<path d="M19.45345 2.5 L19.1896 0 L19.1896 2.5 z"/>
<path d="M19.27755 7.5 L19.1896 10 L19.5414 10 z"/>
<path d="M19.27755 7.5 L19.5414 10 L19.5414 7.5 z"/>
<path d="M19.1896 7.5 L19.1896 10 L19.27755 7.5 z"/>
<path d="M19.1896 2.5 L19.1896 0 L19.07808 2.5 z"/>
<path d="M19.07808 2.5 L19.1896 0 L18.7435 0 z"/>
<path d="M19.07808 2.5 L18.7435 0 L18.7435 2.5 z"/>
<path d="M18.85503 7.5 L18.7435 10 L19.1896 10 z"/>
<path d="M18.85503 7.5 L19.1896 10 L19.1896 7.5 z"/>
<path d="M18.7435 7.5 L18.7435 10 L18.85503 7.5 z"/>
<path d="M18.7435 2.5 L18.7435 0 L18.60953 2.5 z"/>
<path d="M18.60953 2.5 L18.7435 0 L18.2076 0 z"/>
<path d="M18.60953 2.5 L18.2076 0 L18.2076 2.5 z"/>
<path d="M18.34157 7.5 L18.2076 10 L18.7435 10 z"/>
<path d="M18.34157 7.5 L18.7435 10 L18.7435 7.5 z"/>
<path d="M18.2076 7.5 L18.2076 10 L18.34157 7.5 z"/>
<path d="M18.2076 2.5 L18.2076 0 L18.0526 2.5 z"/>
<path d="M18.0526 2.5 L18.2076 0 L17.5876 0 z"/>
<path d="M18.0526 2.5 L17.5876 0 L17.5876 2.5 z"/>
<path d="M17.7426 7.5 L17.5876 10 L18.2076 10 z"/>
<path d="M17.7426 7.5 L18.2076 10 L18.2076 7.5 z"/>
<path d="M17.5876 7.5 L17.5876 10 L17.7426 7.5 z"/>
<path d="M17.5876 2.5 L17.5876 0 L17.41313 2.5 z"/>
<path d="M17.41313 2.5 L17.5876 0 L16.8897 0 z"/>
<path d="M17.41313 2.5 L16.8897 0 L16.8897 2.5 z"/>
<path d="M17.06418 7.5 L16.8897 10 L17.5876 10 z"/>
<path d="M17.06418 7.5 L17.5876 10 L17.5876 7.5 z"/>
<path d="M16.8897 7.5 L16.8897 10 L17.06418 7.5 z"/>
<path d="M16.8897 2.5 L16.8897 0 L16.69755 2.5 z"/>
<path d="M16.69755 2.5 L16.8897 0 L16.1211 0 z"/>
<path d="M16.69755 2.5 L16.1211 0 L16.1211 2.5 z"/>
<path d="M16.31325 7.5 L16.1211 10 L16.8897 10 z"/>
<path d="M16.31325 7.5 L16.8897 10 L16.8897 7.5 z"/>
<path d="M16.1211 7.5 L16.1211 10 L16.31325 7.5 z"/>
<path d="M16.1211 2.5 L16.1211 0 L15.91323 2.5 z"/>
<path d="M15.91323 2.5 L16.1211 0 L15.2896 0 z"/>
<path d="M15.91323 2.5 L15.2896 0 L15.2896 2.5 z"/>
<path d="M15.49748 7.5 L15.2896 10 L16.1211 10 z"/>
<path d="M15.49748 7.5 L16.1211 10 L16.1211 7.5 z"/>
<path d="M15.2896 7.5 L15.2896 10 L15.49748 7.5 z"/>
<path d="M15.2896 2.5 L15.2896 0 L15.06818 2.5 z"/>
<path d="M15.06818 2.5 L15.2896 0 L14.4039 0 z"/>
<path d="M15.06818 2.5 L14.4039 0 L14.4039 2.5 z"/>
<path d="M14.62533 7.5 L14.4039 10 L15.2896 10 z"/>
<path d="M14.62533 7.5 L15.2896 10 L15.2896 7.5 z"/>
<path d="M14.4039 7.5 L14.4039 10 L14.62533 7.5 z"/>
<path d="M14.4039 2.5 L14.4039 0 L14.1712 2.5 z"/>
<path d="M14.1712 2.5 L14.4039 0 L13.4731 0 z"/>
<path d="M14.1712 2.5 L13.4731 0 L13.4731 2.5 z"/>
<path d="M13.7058 7.5 L13.4731 10 L14.4039 10 z"/>
<path d="M13.7058 7.5 L14.4039 10 L14.4039 7.5 z"/>
<path d="M13.4731 7.5 L13.4731 10 L13.7058 7.5 z"/>
<path d="M13.4731 2.5 L13.4731 0 L13.23145 2.5 z"/>
<path d="M13.23145 2.5 L13.4731 0 L12.5065 0 z"/>
<path d="M13.23145 2.5 L12.5065 0 L12.5065 2.5 z"/>
<path d="M12.74815 7.5 L12.5065 10 L13.4731 10 z"/>
<path d="M12.74815 7.5 L13.4731 10 L13.4731 7.5 z"/>
<path d="M12.5065 7.5 L12.5065 10 L12.74815 7.5 z"/>
<path d="M12 5.10482 L11.5143 10 L12 10 z"/>
<path d="M12 5.10482 L12 0 L11.5143 0 z"/>
<path d="M12 5.10482 L11.5143 0 L11.5143 10 z"/>
<path d="M12.25845 2.5 L12.5065 2.5 L12.5065 0 z"/>
<path d="M12.25845 2.5 L12.5065 0 L12 0 z"/>
<path d="M12.25845 2.5 L12 0 L12 2.5 z"/>
<path d="M12 7.5 L12 10 L12.5065 10 z"/>
<path d="M12 7.5 L12.5065 10 L12.5065 7.5 z"/>
<path d="M11.5143 10 L11.5143 0 L10.5065 10 z"/>
<path d="M10.5065 10 L11.5143 0 L10.5065 0 z"/>
<path d="M10.5065 10 L10.5065 0 L9.4935 10 z"/>
<path d="M9.4935 10 L10.5065 0 L9.4935 0 z"/>
<path d="M9.4935 10 L9.4935 0 L8.4857 10 z"/>
<path d="M8.4857 10 L9.4935 0 L8.4857 0 z"/>
<path d="M8.4857 10 L8.4857 0 L7.4935 10 z"/>
<path d="M7.4935 10 L8.4857 0 L7.4935 0 z"/>
<path d="M7.4935 10 L7.4935 0 L6.5269 10 z"/>
<path d="M6.5269 10 L7.4935 0 L6.5269 0 z"/>
<path d="M6.5269 10 L6.5269 0 L5.5961 10 z"/>
<path d="M5.5961 10 L6.5269 0 L5.5961 0 z"/>
<path d="M5.5961 10 L5.5961 0 L4.7104 10 z"/>
<path d="M4.7104 10 L5.5961 0 L4.7104 0 z"/>
<path d="M4.7104 10 L4.7104 0 L3.8789 10 z"/>
<path d="M3.8789 10 L4.7104 0 L3.8789 0 z"/>
<path d="M3.8789 10 L3.8789 0 L3.1103 10 z"/>
<path d="M3.1103 10 L3.8789 0 L3.1103 0 z"/>
<path d="M3.1103 10 L3.1103 0 L2.4124 10 z"/>
<path d="M2.4124 10 L3.1103 0 L2.4124 0 z"/>
<path d="M2.4124 10 L2.4124 0 L1.7924 10 z"/>
<path d="M1.7924 10 L2.4124 0 L1.7924 0 z"/>
<path d="M1.7924 10 L1.7924 0 L1.2565 10 z"/>
<path d="M1.2565 10 L1.7924 0 L1.2565 0 z"/>
<path d="M1.2565 10 L1.2565 0 L0.8104 10 z"/>
<path d="M0.8104 10 L1.2565 0 L0.8104 0 z"/>
<path d="M0.8104 10 L0.8104 0 L0.4586 10 z"/>
<path d="M0.4586 10 L0.8104 0 L0.4586 0 z"/>
<path d="M0.4586 10 L0.4586 0 L0.2047 10 z"/>
<path d="M0.2047 10 L0.4586 0 L0.2047 0 z"/>
<path d="M0.2047 10 L0.2047 0 L0.0513 10 z"/>
<path d="M0.0513 10 L0.2047 0 L0.0513 0 z"/>
<path d="M0.0513 10 L0.0513 0 L0 10 z"/>
<path d="M0 10 L0.0513 0 L0 0 z"/>
<path d="M0 10 L0 0 L0.0513 10 z"/>
<path d="M0.0513 10 L0 0 L0.0513 0 z"/>
<path d="M0.0513 10 L0.0513 0 L0.2047 10 z"/>
<path d="M0.2047 10 L0.0513 0 L0.2047 0 z"/>
<path d="M0.2047 10 L0.2047 0 L0.4586 10 z"/>
<path d="M0.4586 10 L0.2047 0 L0.4586 0 z"/>
<path d="M0.4586 10 L0.4586 0 L0.8104 10 z"/>
<path d="M0.8104 10 L0.4586 0 L0.8104 0 z"/>
<path d="M0.8104 10 L0.8104 0 L1.2565 10 z"/>
<path d="M1.2565 10 L0.8104 0 L1.2565 0 z"/>
<path d="M1.2565 10 L1.2565 0 L1.7924 10 z"/>
<path d="M1.7924 10 L1.2565 0 L1.7924 0 z"/>
<path d="M1.7924 10 L1.7924 0 L2.4124 10 z"/>
<path d="M2.4124 10 L1.7924 0 L2.4124 0 z"/>
<path d="M2.4124 10 L2.4124 0 L3.1103 10 z"/>
<path d="M3.1103 10 L2.4124 0 L3.1103 0 z"/>
<path d="M3.1103 10 L3.1103 0 L3.8789 10 z"/>
<path d="M3.8789 10 L3.1103 0 L3.8789 0 z"/>
<path d="M3.8789 10 L3.8789 0 L4.7104 10 z"/>
<path d="M4.7104 10 L3.8789 0 L4.7104 0 z"/>
<path d="M4.7104 10 L4.7104 0 L5.5961 10 z"/>
<path d="M5.5961 10 L4.7104 0 L5.5961 0 z"/>
<path d="M5.5961 10 L5.5961 0 L6.5269 10 z"/>
<path d="M6.5269 10 L5.5961 0 L6.5269 0 z"/>
<path d="M6.5269 10 L6.5269 0 L7.4935 10 z"/>
<path d="M7.4935 10 L6.5269 0 L7.4935 0 z"/>
<path d="M7.4935 10 L7.4935 0 L8.4857 10 z"/>
<path d="M8.4857 10 L7.4935 0 L8.4857 0 z"/>
<path d="M8.4857 10 L8.4857 0 L9.4935 10 z"/>
<path d="M9.4935 10 L8.4857 0 L9.4935 0 z"/>
<path d="M9.4935 10 L9.4935 0 L10.5065 10 z"/>
<path d="M10.5065 10 L9.4935 0 L10.5065 0 z"/>
<path d="M10.5065 10 L10.5065 0 L11.5143 10 z"/>
<path d="M11.5143 10 L10.5065 0 L11.5143 0 z"/>
<path d="M11.5143 0 L12 4.89518 L12 10 z"/>
<path d="M11.5143 0 L12 10 L11.5143 10 z"/>
<path d="M12 4.89518 L11.5143 0 L12 0 z"/>
<path d="M12 2.5 L12 0 L12.5065 0 z"/>
<path d="M12 2.5 L12.5065 0 L12.5065 2.5 z"/>
<path d="M12.25845 7.5 L12.5065 10 L12 10 z"/>
<path d="M12.25845 7.5 L12 10 L12 7.5 z"/>
<path d="M12.5065 7.5 L12.5065 10 L12.25845 7.5 z"/>
<path d="M12.5065 2.5 L12.5065 0 L12.74815 2.5 z"/>
<path d="M12.74815 2.5 L12.5065 0 L13.4731 0 z"/>
<path d="M12.74815 2.5 L13.4731 0 L13.4731 2.5 z"/>
<path d="M13.23145 7.5 L13.4731 10 L12.5065 10 z"/>
<path d="M13.23145 7.5 L12.5065 10 L12.5065 7.5 z"/>
<path d="M13.4731 7.5 L13.4731 10 L13.23145 7.5 z"/>
<path d="M13.4731 2.5 L13.4731 0 L13.7058 2.5 z"/>
<path d="M13.7058 2.5 L13.4731 0 L14.4039 0 z"/>
<path d="M13.7058 2.5 L14.4039 0 L14.4039 2.5 z"/>
<path d="M14.1712 7.5 L14.4039 10 L13.4731 10 z"/>
<path d="M14.1712 7.5 L13.4731 10 L13.4731 7.5 z"/>
<path d="M14.4039 7.5 L14.4039 10 L14.1712 7.5 z"/>
<path d="M14.4039 2.5 L14.4039 0 L14.62533 2.5 z"/>
<path d="M14.62533 2.5 L14.4039 0 L15.2896 0 z"/>
<path d="M14.62533 2.5 L15.2896 0 L15.2896 2.5 z"/>
<path d="M15.06818 7.5 L15.2896 10 L14.4039 10 z"/>
<path d="M15.06818 7.5 L14.4039 10 L14.4039 7.5 z"/>
<path d="M15.2896 7.5 L15.2896 10 L15.06818 7.5 z"/>
<path d="M15.2896 2.5 L15.2896 0 L15.49748 2.5 z"/>
<path d="M15.49748 2.5 L15.2896 0 L16.1211 0 z"/>
<path d="M15.49748 2.5 L16.1211 0 L16.1211 2.5 z"/>
<path d="M15.91323 7.5 L16.1211 10 L15.2896 10 z"/>
<path d="M15.91323 7.5 L15.2896 10 L15.2896 7.5 z"/>
<path d="M16.1211 7.5 L16.1211 10 L15.91323 7.5 z"/>
<path d="M16.1211 2.5 L16.1211 0 L16.31325 2.5 z"/>
<path d="M16.31325 2.5 L16.1211 0 L16.8897 0 z"/>
<path d="M16.31325 2.5 L16.8897 0 L16.8897 2.5 z"/>
<path d="M16.69755 7.5 L16.8897 10 L16.1211 10 z"/>
<path d="M16.69755 7.5 L16.1211 10 L16.1211 7.5 z"/>
<path d="M16.8897 7.5 L16.8897 10 L16.69755 7.5 z"/>
<path d="M16.8897 2.5 L16.8897 0 L17.06418 2.5 z"/>
<path d="M17.06418 2.5 L16.8897 0 L17.5876 0 z"/>
<path d="M17.06418 2.5 L17.5876 0 L17.5876 2.5 z"/>
<path d="M17.41313 7.5 L17.5876 10 L16.8897 10 z"/>
<path d="M17.41313 7.5 L16.8897 10 L16.8897 7.5 z"/>
<path d="M17.5876 7.5 L17.5876 10 L17.41313 7.5 z"/>
<path d="M17.5876 2.5 L17.5876 0 L17.7426 2.5 z"/>
<path d="M17.7426 2.5 L17.5876 0 L18.2076 0 z"/>
<path d="M17.7426 2.5 L18.2076 0 L18.2076 2.5 z"/>
<path d="M18.0526 7.5 L18.2076 10 L17.5876 10 z"/>
<path d="M18.0526 7.5 L17.5876 10 L17.5876 7.5 z"/>
<path d="M18.2076 7.5 L18.2076 10 L18.0526 7.5 z"/>
<path d="M18.2076 2.5 L18.2076 0 L18.34157 2.5 z"/>
<path d="M18.34157 2.5 L18.2076 0 L18.7435 0 z"/>
<path d="M18.34157 2.5 L18.7435 0 L18.7435 2.5 z"/>
<path d="M18.60953 7.5 L18.7435 10 L18.2076 10 z"/>
<path d="M18.60953 7.5 L18.2076 10 L18.2076 7.5 z"/>
<path d="M18.7435 7.5 L18.7435 10 L18.60953 7.5 z"/>
<path d="M18.7435 2.5 L18.7435 0 L18.85503 2.5 z"/>
<path d="M18.85503 2.5 L18.7435 0 L19.1896 0 z"/>
<path d="M18.85503 2.5 L19.1896 0 L19.1896 2.5 z"/>
<path d="M19.07808 7.5 L19.1896 10 L18.7435 10 z"/>
<path d="M19.07808 7.5 L18.7435 10 L18.7435 7.5 z"/>
<path d="M19.1896 7.5 L19.1896 10 L19.07808 7.5 z"/>
<path d="M19.1896 2.5 L19.1896 0 L19.27755 2.5 z"/>
<path d="M19.27755 2.5 L19.1896 0 L19.5414 0 z"/>
<path d="M19.27755 2.5 L19.5414 0 L19.5414 2.5 z"/>
<path d="M19.45345 7.5 L19.5414 10 L19.1896 10 z"/>
<path d="M19.45345 7.5 L19.1896 10 L19.1896 7.5 z"/>
<path d="M19.5414 7.5 L19.5414 10 L19.45345 7.5 z"/>
<path d="M19.5414 2.5 L19.5414 0 L19.60488 2.5 z"/>
<path d="M19.60488 2.5 L19.5414 0 L19.7953 0 z"/>
<path d="M19.60488 2.5 L19.7953 0 L19.7953 2.5 z"/>
<path d="M19.73182 7.5 L19.7953 10 L19.5414 10 z"/>
<path d="M19.73182 7.5 L19.5414 10 L19.5414 7.5 z"/>
<path d="M19.7953 7.5 L19.7953 10 L19.73182 7.5 z"/>
<path d="M19.7953 2.5 L19.7953 0 L19.83365 2.5 z"/>
<path d="M19.83365 2.5 L19.7953 0 L19.9487 0 z"/>
<path d="M19.83365 2.5 L19.9487 0 L19.9487 2.5 z"/>
<path d="M19.91035 7.5 L19.9487 10 L19.7953 10 z"/>
<path d="M19.91035 7.5 L19.7953 10 L19.7953 7.5 z"/>
<path d="M19.9487 7.5 L19.9487 10 L19.91035 7.5 z"/>
<path d="M19.9487 2.5 L19.9487 0 L19.96153 2.5 z"/>
<path d="M19.96153 2.5 L19.9487 0 L20 0 z"/>
<path d="M19.96153 2.5 L20 0 L20 2.5 z"/>
<path d="M19.98718 7.5 L20 10 L19.9487 10 z"/>
<path d="M19.98718 7.5 L19.9487 10 L19.9487 7.5 z"/>
<path d="M20 7.5 L20 10 L19.98718 7.5 z"/>
<path d="M20 2.5 L20 0 L19.98718 2.5 z"/>
<path d="M19.98718 2.5 L20 0 L19.9487 0 z"/>
<path d="M19.98718 2.5 L19.9487 0 L19.9487 2.5 z"/>
<path d="M19.96153 7.5 L19.9487 10 L20 10 z"/>
<path d="M19.96153 7.5 L20 10 L20 7.5 z"/>
<path d="M19.9487 7.5 L19.9487 10 L19.96153 7.5 z"/>
<path d="M12 0 L11.5143 0 L12 0 z"/>
<path d="M12 0 L11.5143 0 L10.5065 0 z"/>
<path d="M12 0 L10.5065 0 L12 0 z"/>
<path d="M12 0 L10.5065 0 L9.4935 0 z"/>
<path d="M12 0 L9.4935 0 L12 0 z"/>
<path d="M12 0 L9.4935 0 L8.4857 0 z"/>
<path d="M12 0 L8.4857 0 L12 0 z"/>
<path d="M12 0 L8.4857 0 L7.4935 0 z"/>
<path d="M12 0 L7.4935 0 L12 0 z"/>
<path d="M12 0 L7.4935 0 L6.5269 0 z"/>
<path d="M12 0 L6.5269 0 L12 0 z"/>
<path d="M12 0 L6.5269 0 L5.5961 0 z"/>
<path d="M12 0 L5.5961 0 L12 0 z"/>
<path d="M12 0 L5.5961 0 L4.7104 0 z"/>
<path d="M12 0 L4.7104 0 L12 0 z"/>
<path d="M12 0 L4.7104 0 L3.8789 0 z"/>
<path d="M12 0 L3.8789 0 L12 0 z"/>
<path d="M12 0 L3.8789 0 L3.1103 0 z"/>
<path d="M12 0 L3.1103 0 L12 0 z"/>
<path d="M12 0 L3.1103 0 L2.4124 0 z"/>
<path d="M12 0 L2.4124 0 L12 0 z"/>
<path d="M12 0 L2.4124 0 L1.7924 0 z"/>
<path d="M12 0 L1.7924 0 L12 0 z"/>
<path d="M12 0 L1.7924 0 L1.2565 0 z"/>
<path d="M12 0 L1.2565 0 L12 0 z"/>
<path d="M12 0 L1.2565 0 L0.8104 0 z"/>
<path d="M12 0 L0.8104 0 L12 0 z"/>
<path d="M12 0 L0.8104 0 L0.4586 0 z"/>
<path d="M12 0 L0.4586 0 L12 0 z"/>
<path d="M12 0 L0.4586 0 L0.2047 0 z"/>
<path d="M12 0 L0.2047 0 L12 0 z"/>
<path d="M12 0 L0.2047 0 L0.0513 0 z"/>
<path d="M12 0 L0.0513 0 L12 0 z"/>
<path d="M12 0 L0.0513 0 L0 0 z"/>
<path d="M12 0 L0 0 L12 0 z"/>
<path d="M12 0 L0 0 L0.0513 0 z"/>
<path d="M12 0 L0.0513 0 L12 0 z"/>
<path d="M12 0 L0.0513 0 L0.2047 0 z"/>
<path d="M12 0 L0.2047 0 L12 0 z"/>
<path d="M12 0 L0.2047 0 L0.4586 0 z"/>
<path d="M12 0 L0.4586 0 L12 0 z"/>
<path d="M12 0 L0.4586 0 L0.8104 0 z"/>
<path d="M12 0 L0.8104 0 L12 0 z"/>
<path d="M12 0 L0.8104 0 L1.2565 0 z"/>
<path d="M12 0 L1.2565 0 L12 0 z"/>
<path d="M12 0 L1.2565 0 L1.7924 0 z"/>
<path d="M12 0 L1.7924 0 L12 0 z"/>
<path d="M12 0 L1.7924 0 L2.4124 0 z"/>
<path d="M12 0 L2.4124 0 L12 0 z"/>
<path d="M12 0 L2.4124 0 L3.1103 0 z"/>
<path d="M12 0 L3.1103 0 L12 0 z"/>
<path d="M12 0 L3.1103 0 L3.8789 0 z"/>
<path d="M12 0 L3.8789 0 L12 0 z"/>
<path d="M12 0 L3.8789 0 L4.7104 0 z"/>
<path d="M12 0 L4.7104 0 L12 0 z"/>
<path d="M12 0 L4.7104 0 L5.5961 0 z"/>
<path d="M12 0 L5.5961 0 L12 0 z"/>
<path d="M12 0 L5.5961 0 L6.5269 0 z"/>
<path d="M12 0 L6.5269 0 L12 0 z"/>
<path d="M12 0 L6.5269 0 L7.4935 0 z"/>
<path d="M12 0 L7.4935 0 L12 0 z"/>
<path d="M12 0 L7.4935 0 L8.4857 0 z"/>
<path d="M12 0 L8.4857 0 L12 0 z"/>
<path d="M12 0 L8.4857 0 L9.4935 0 z"/>
<path d="M12 0 L9.4935 0 L12 0 z"/>
<path d="M12 0 L9.4935 0 L10.5065 0 z"/>
<path d="M12 0 L10.5065 0 L12 0 z"/>
<path d="M12 0 L10.5065 0 L11.5143 0 z"/>
<path d="M12 0 L11.5143 0 L12 0 z"/>
<path d="M12 0 L11.5143 0 L12 0 z"/>
<path d="M20 0 L19.9487 0 L19.7953 0 z"/>
<path d="M20 0 L19.7953 0 L19.5414 0 z"/>
<path d="M20 0 L19.5414 0 L19.1896 0 z"/>
<path d="M20 0 L19.1896 0 L18.7435 0 z"/>
<path d="M20 0 L18.7435 0 L18.2076 0 z"/>
<path d="M20 0 L18.2076 0 L17.5876 0 z"/>
<path d="M20 0 L17.5876 0 L16.8897 0 z"/>
<path d="M20 0 L16.8897 0 L16.1211 0 z"/>
<path d="M20 0 L16.1211 0 L15.2896 0 z"/>
<path d="M20 0 L15.2896 0 L14.4039 0 z"/>
<path d="M20 0 L14.4039 0 L13.4731 0 z"/>
<path d="M20 0 L13.4731 0 L12.5065 0 z"/>
<path d="M12.5065 0 L12 0 L12 0 z"/>
<path d="M12.5065 0 L12 0 L20 0 z"/>
<path d="M12 0 L12 0 L20 0 z"/>
<path d="M12 0 L12 0 L20 0 z"/>
<path d="M12 0 L12 0 L20 0 z"/>
<path d="M12 0 L12 0 L20 0 z"/>
<path d="M12 0 L12 0 L20 0 z"/>
<path d="M12 0 L12 0 L20 0 z"/>
<path d="M12 0 L12 0 L20 0 z"/>
<path d="M12 0 L12 0 L20 0 z"/>
<path d="M12 0 L12 0 L20 0 z"/>
<path d="M12 0 L12 0 L20 0 z"/>
<path d="M12 0 L12 0 L20 0 z"/>
<path d="M12 0 L12 0 L20 0 z"/>
<path d="M12 0 L12 0 L20 0 z"/>
<path d="M12 0 L12 0 L20 0 z"/>
<path d="M12 0 L12 0 L20 0 z"/>
<path d="M12 0 L12 0 L20 0 z"/>
<path d="M12 0 L12 0 L20 0 z"/>
<path d="M12 0 L12 0 L20 0 z"/>
<path d="M12 0 L12 0 L20 0 z"/>
<path d="M12 0 L12 0 L20 0 z"/>
<path d="M12 0 L12 0 L20 0 z"/>
<path d="M12 0 L12 0 L20 0 z"/>
<path d="M12 0 L12 0 L20 0 z"/>
<path d="M12 0 L12 0 L20 0 z"/>
<path d="M12 0 L12 0 L20 0 z"/>
<path d="M12 0 L12 0 L20 0 z"/>
<path d="M12 0 L12 0 L20 0 z"/>
<path d="M12 0 L12 0 L20 0 z"/>
<path d="M12 0 L12 0 L20 0 z"/>
<path d="M12 0 L12 0 L20 0 z"/>
<path d="M12 0 L12 0 L20 0 z"/>
<path d="M12 0 L12 0 L20 0 z"/>
<path d="M12 0 L12 0 L20 0 z"/>
<path d="M12 0 L12 0 L20 0 z"/>
<path d="M12 0 L12 0 L12.5065 0 z"/>
<path d="M12 0 L12.5065 0 L20 0 z"/>
<path d="M20 0 L12.5065 0 L13.4731 0 z"/>
<path d="M20 0 L13.4731 0 L14.4039 0 z"/>
<path d="M20 0 L14.4039 0 L15.2896 0 z"/>
<path d="M20 0 L15.2896 0 L16.1211 0 z"/>
<path d="M20 0 L16.1211 0 L16.8897 0 z"/>
<path d="M20 0 L16.8897 0 L17.5876 0 z"/>
<path d="M20 0 L17.5876 0 L18.2076 0 z"/>
<path d="M20 0 L18.2076 0 L18.7435 0 z"/>
<path d="M20 0 L18.7435 0 L19.1896 0 z"/>
<path d="M20 0 L19.1896 0 L19.5414 0 z"/>
<path d="M20 0 L19.5414 0 L19.7953 0 z"/>
<path d="M20 0 L19.7953 0 L19.9487 0 z"/>
<path d="M12 10 L11.5143 10 L12 10 z"/>
<path d="M12 10 L11.5143 10 L10.5065 10 z"/>
<path d="M12 10 L10.5065 10 L12 10 z"/>
<path d="M12 10 L10.5065 10 L9.4935 10 z"/>
<path d="M12 10 L9.4935 10 L12 10 z"/>
<path d="M12 10 L9.4935 10 L8.4857 10 z"/>
<path d="M12 10 L8.4857 10 L12 10 z"/>
<path d="M12 10 L8.4857 10 L7.4935 10 z"/>
<path d="M12 10 L7.4935 10 L12 10 z"/>
<path d="M12 10 L7.4935 10 L6.5269 10 z"/>
<path d="M12 10 L6.5269 10 L12 10 z"/>
<path d="M12 10 L6.5269 10 L5.5961 10 z"/>
<path d="M12 10 L5.5961 10 L12 10 z"/>
<path d="M12 10 L5.5961 10 L4.7104 10 z"/>
<path d="M12 10 L4.7104 10 L12 10 z"/>
<path d="M12 10 L4.7104 10 L3.8789 10 z"/>
<path d="M12 10 L3.8789 10 L12 10 z"/>
<path d="M12 10 L3.8789 10 L3.1103 10 z"/>
<path d="M12 10 L3.1103 10 L12 10 z"/>
<path d="M12 10 L3.1103 10 L2.4124 10 z"/>
<path d="M12 10 L2.4124 10 L12 10 z"/>
<path d="M12 10 L2.4124 10 L1.7924 10 z"/>
<path d="M12 10 L1.7924 10 L12 10 z"/>
<path d="M12 10 L1.7924 10 L1.2565 10 z"/>
<path d="M12 10 L1.2565 10 L12 10 z"/>
<path d="M12 10 L1.2565 10 L0.8104 10 z"/>
<path d="M12 10 L0.8104 10 L12 10 z"/>
<path d="M12 10 L0.8104 10 L0.4586 10 z"/>
<path d="M12 10 L0.4586 10 L12 10 z"/>
<path d="M12 10 L0.4586 10 L0.2047 10 z"/>
<path d="M12 10 L0.2047 10 L12 10 z"/>
<path d="M12 10 L0.2047 10 L0.0513 10 z"/>
<path d="M12 10 L0.0513 10 L12 10 z"/>
<path d="M12 10 L0.0513 10 L0 10 z"/>
<path d="M12 10 L0 10 L12 10 z"/>
<path d="M12 10 L0 10 L0.0513 10 z"/>
<path d="M12 10 L0.0513 10 L12 10 z"/>
<path d="M12 10 L0.0513 10 L0.2047 10 z"/>
<path d="M12 10 L0.2047 10 L12 10 z"/>
<path d="M12 10 L0.2047 10 L0.4586 10 z"/>
<path d="M12 10 L0.4586 10 L12 10 z"/>
<path d="M12 10 L0.4586 10 L0.8104 10 z"/>
<path d="M12 10 L0.8104 10 L12 10 z"/>
<path d="M12 10 L0.8104 10 L1.2565 10 z"/>
<path d="M12 10 L1.2565 10 L12 10 z"/>
<path d="M12 10 L1.2565 10 L1.7924 10 z"/>
<path d="M12 10 L1.7924 10 L12 10 z"/>
<path d="M12 10 L1.7924 10 L2.4124 10 z"/>
<path d="M12 10 L2.4124 10 L12 10 z"/>
<path d="M12 10 L2.4124 10 L3.1103 10 z"/>
<path d="M12 10 L3.1103 10 L12 10 z"/>
<path d="M12 10 L3.1103 10 L3.8789 10 z"/>
<path d="M12 10 L3.8789 10 L12 10 z"/>
<path d="M12 10 L3.8789 10 L4.7104 10 z"/>
<path d="M12 10 L4.7104 10 L12 10 z"/>
<path d="M12 10 L4.7104 10 L5.5961 10 z"/>
<path d="M12 10 L5.5961 10 L12 10 z"/>
<path d="M12 10 L5.5961 10 L6.5269 10 z"/>
<path d="M12 10 L6.5269 10 L12 10 z"/>
<path d="M12 10 L6.5269 10 L7.4935 10 z"/>
<path d="M12 10 L7.4935 10 L12 10 z"/>
<path d="M12 10 L7.4935 10 L8.4857 10 z"/>
<path d="M12 10 L8.4857 10 L12 10 z"/>
<path d="M12 10 L8.4857 10 L9.4935 10 z"/>
<path d="M12 10 L9.4935 10 L12 10 z"/>
<path d="M12 10 L9.4935 10 L10.5065 10 z"/>
<path d="M12 10 L10.5065 10 L12 10 z"/>
<path d="M12 10 L10.5065 10 L11.5143 10 z"/>
<path d="M12 10 L11.5143 10 L12 10 z"/>
<path d="M12 10 L11.5143 10 L12 10 z"/>
<path d="M19.9487 10 L19.7953 10 L19.5414 10 z"/>
<path d="M19.9487 10 L19.5414 10 L19.1896 10 z"/>
<path d="M19.9487 10 L19.1896 10 L18.7435 10 z"/>
<path d="M19.9487 10 L18.7435 10 L18.2076 10 z"/>
<path d="M19.9487 10 L18.2076 10 L17.5876 10 z"/>
<path d="M19.9487 10 L17.5876 10 L16.8897 10 z"/>
<path d="M19.9487 10 L16.8897 10 L16.1211 10 z"/>
<path d="M19.9487 10 L16.1211 10 L15.2896 10 z"/>
<path d="M19.9487 10 L15.2896 10 L14.4039 10 z"/>
<path d="M19.9487 10 L14.4039 10 L13.4731 10 z"/>
<path d="M19.9487 10 L13.4731 10 L12.5065 10 z"/>
<path d="M12.5065 10 L12 10 L12 10 z"/>
<path d="M12.5065 10 L12 10 L19.9487 10 z"/>
<path d="M12 10 L12 10 L19.9487 10 z"/>
<path d="M12 10 L12 10 L19.9487 10 z"/>
<path d="M12 10 L12 10 L19.9487 10 z"/>
<path d="M12 10 L12 10 L19.9487 10 z"/>
<path d="M12 10 L12 10 L19.9487 10 z"/>
<path d="M12 10 L12 10 L19.9487 10 z"/>
<path d="M12 10 L12 10 L19.9487 10 z"/>
<path d="M12 10 L12 10 L19.9487 10 z"/>
<path d="M12 10 L12 10 L19.9487 10 z"/>
<path d="M12 10 L12 10 L19.9487 10 z"/>
<path d="M12 10 L12 10 L19.9487 10 z"/>
<path d="M12 10 L12 10 L19.9487 10 z"/>
<path d="M12 10 L12 10 L19.9487 10 z"/>
<path d="M12 10 L12 10 L19.9487 10 z"/>
<path d="M12 10 L12 10 L19.9487 10 z"/>
<path d="M12 10 L12 10 L19.9487 10 z"/>
<path d="M12 10 L12 10 L19.9487 10 z"/>
<path d="M12 10 L12 10 L19.9487 10 z"/>
<path d="M12 10 L12 10 L19.9487 10 z"/>
<path d="M12 10 L12 10 L19.9487 10 z"/>
<path d="M12 10 L12 10 L19.9487 10 z"/>
<path d="M12 10 L12 10 L19.9487 10 z"/>
<path d="M12 10 L12 10 L19.9487 10 z"/>
<path d="M12 10 L12 10 L19.9487 10 z"/>
<path d="M12 10 L12 10 L19.9487 10 z"/>
<path d="M12 10 L12 10 L19.9487 10 z"/>
<path d="M12 10 L12 10 L19.9487 10 z"/>
<path d="M12 10 L12 10 L19.9487 10 z"/>
<path d="M12 10 L12 10 L19.9487 10 z"/>
<path d="M12 10 L12 10 L19.9487 10 z"/>
<path d="M12 10 L12 10 L19.9487 10 z"/>
<path d="M12 10 L12 10 L19.9487 10 z"/>
<path d="M12 10 L12 10 L19.9487 10 z"/>
<path d="M12 10 L12 10 L19.9487 10 z"/>
<path d="M12 10 L12 10 L12.5065 10 z"/>
<path d="M12 10 L12.5065 10 L19.9487 10 z"/>
<path d="M19.9487 10 L12.5065 10 L13.4731 10 z"/>
<path d="M19.9487 10 L13.4731 10 L14.4039 10 z"/>
<path d="M19.9487 10 L14.4039 10 L15.2896 10 z"/>
<path d="M19.9487 10 L15.2896 10 L16.1211 10 z"/>
<path d="M19.9487 10 L16.1211 10 L16.8897 10 z"/>
<path d="M19.9487 10 L16.8897 10 L17.5876 10 z"/>
<path d="M19.9487 10 L17.5876 10 L18.2076 10 z"/>
<path d="M19.9487 10 L18.2076 10 L18.7435 10 z"/>
<path d="M19.9487 10 L18.7435 10 L19.1896 10 z"/>
<path d="M19.9487 10 L19.1896 10 L19.5414 10 z"/>
<path d="M19.9487 10 L19.5414 10 L19.7953 10 z"/>
<path d="M19.9487 10 L19.7953 10 L19.9487 10 z"/>
<path d="M19.9487 10 L19.9487 10 L20 10 z"/>
<path d="M12 7.44622 L12 2.55378 L12 7.5 z"/>
<path d="M12 7.44622 L12 7.5 L12 7.5 z"/>
<path d="M12 2.5 L12 2.5 L12 2.55378 z"/>
<path d="M12 2.5 L12 2.55378 L12 7.44622 z"/>
<path d="M18.7435 2.5 L19.08174 2.5 L12.11987 2.5 z"/>
<path d="M18.7435 2.5 L12.11987 2.5 L12 2.5 z"/>
<path d="M18.7435 2.5 L12 2.5 L12 2.5 z"/>
<path d="M18.7435 2.5 L12 2.5 L12.5065 2.5 z"/>
<path d="M18.7435 2.5 L12.5065 2.5 L13.4731 2.5 z"/>
<path d="M18.7435 2.5 L13.4731 2.5 L14.4039 2.5 z"/>
<path d="M18.7435 2.5 L14.4039 2.5 L15.2896 2.5 z"/>
<path d="M18.7435 2.5 L15.2896 2.5 L16.1211 2.5 z"/>
<path d="M18.7435 2.5 L16.1211 2.5 L16.8897 2.5 z"/>
<path d="M18.7435 2.5 L16.8897 2.5 L17.5876 2.5 z"/>
<path d="M18.7435 2.5 L17.5876 2.5 L18.2076 2.5 z"/>
<path d="M19.9487 2.5 L19.7953 2.5 L19.5414 2.5 z"/>
<path d="M19.9487 2.5 L19.5414 2.5 L19.1896 2.5 z"/>
<path d="M19.9487 2.5 L19.1896 2.5 L18.7435 2.5 z"/>
<path d="M19.9487 2.5 L18.7435 2.5 L18.2076 2.5 z"/>
<path d="M19.9487 2.5 L18.2076 2.5 L17.5876 2.5 z"/>
<path d="M19.9487 2.5 L17.5876 2.5 L16.8897 2.5 z"/>
<path d="M19.9487 2.5 L16.8897 2.5 L16.1211 2.5 z"/>
<path d="M19.9487 2.5 L16.1211 2.5 L15.2896 2.5 z"/>
<path d="M19.9487 2.5 L15.2896 2.5 L14.4039 2.5 z"/>
<path d="M19.9487 2.5 L14.4039 2.5 L13.4731 2.5 z"/>
<path d="M19.9487 2.5 L13.4731 2.5 L12.5065 2.5 z"/>
<path d="M19.9487 2.5 L12.5065 2.5 L12.11987 2.5 z"/>
<path d="M19.9487 2.5 L12.11987 2.5 L19.08174 2.5 z"/>
<path d="M19.9487 2.5 L19.08174 2.5 L19.1896 2.5 z"/>
<path d="M19.9487 2.5 L19.1896 2.5 L19.5414 2.5 z"/>
<path d="M19.9487 2.5 L19.5414 2.5 L19.7953 2.5 z"/>
<path d="M19.9487 2.5 L19.7953 2.5 L19.9487 2.5 z"/>
<path d="M19.9487 2.5 L19.9487 2.5 L20 2.5 z"/>
<path d="M12 7.5 L12 7.5 L12.5065 7.5 z"/>
<path d="M12 7.5 L12.5065 7.5 L13.4731 7.5 z"/>
<path d="M12 7.5 L13.4731 7.5 L14.4039 7.5 z"/>
<path d="M12 7.5 L14.4039 7.5 L15.2896 7.5 z"/>
<path d="M12 7.5 L15.2896 7.5 L16.1211 7.5 z"/>
<path d="M12 7.5 L16.1211 7.5 L16.8897 7.5 z"/>
<path d="M12 7.5 L16.8897 7.5 L17.5876 7.5 z"/>
<path d="M12 7.5 L17.5876 7.5 L18.2076 7.5 z"/>
<path d="M12 7.5 L18.2076 7.5 L18.7435 7.5 z"/>
<path d="M12 7.5 L18.7435 7.5 L19.08174 7.5 z"/>
<path d="M12 7.5 L19.08174 7.5 L12.11987 7.5 z"/>
<path d="M13.4731 7.5 L12.5065 7.5 L12.11987 7.5 z"/>
<path d="M13.4731 7.5 L12.11987 7.5 L19.08174 7.5 z"/>
<path d="M13.4731 7.5 L19.08174 7.5 L19.1896 7.5 z"/>
<path d="M13.4731 7.5 L19.1896 7.5 L19.5414 7.5 z"/>
<path d="M13.4731 7.5 L19.5414 7.5 L19.7953 7.5 z"/>
<path d="M13.4731 7.5 L19.7953 7.5 L19.9487 7.5 z"/>
<path d="M13.4731 7.5 L19.9487 7.5 L20 7.5 z"/>
<path d="M13.4731 7.5 L20 7.5 L19.9487 7.5 z"/>
<path d="M13.4731 7.5 L19.9487 7.5 L19.7953 7.5 z"/>
<path d="M13.4731 7.5 L19.7953 7.5 L19.5414 7.5 z"/>
<path d="M13.4731 7.5 L19.5414 7.5 L19.1896 7.5 z"/>
<path d="M13.4731 7.5 L19.1896 7.5 L18.7435 7.5 z"/>
<path d="M13.4731 7.5 L18.7435 7.5 L18.2076 7.5 z"/>
<path d="M13.4731 7.5 L18.2076 7.5 L17.5876 7.5 z"/>
<path d="M13.4731 7.5 L17.5876 7.5 L16.8897 7.5 z"/>
<path d="M13.4731 7.5 L16.8897 7.5 L16.1211 7.5 z"/>
<path d="M13.4731 7.5 L16.1211 7.5 L15.2896 7.5 z"/>
<path d="M13.4731 7.5 L15.2896 7.5 L14.4039 7.5 z"/>
</svg>