solid JSxCAD
facet normal 0.9884669137137012 -0.1514369852226017 0
outer loop
vertex 9.9487 -1.0117 2.5
vertex 9.9487 -1.0117 5
vertex 9.91035 -1.26202 2.5
endloop
endfacet
facet normal 0.9884673664942327 -0.15143402978150067 -3.0286805992006975e-7
outer loop
vertex 9.91035 -1.26202 2.5
vertex 9.9487 -1.0117 5
vertex 9.7953 -2.013 5
endloop
endfacet
facet normal 0.9884675174152462 -0.15143304465981008 0
outer loop
vertex 9.91035 -1.26202 2.5
vertex 9.7953 -2.013 5
vertex 9.7953 -2.013 2.5
endloop
endfacet
facet normal 0.9884673664942327 -0.15143402978150067 3.0286805921041337e-7
outer loop
vertex 9.83365 -1.76267 -2.5
vertex 9.7953 -2.013 -5
vertex 9.9487 -1.0117 -5
endloop
endfacet
facet normal 0.988467215570365 -0.1514350149158696 0
outer loop
vertex 9.83365 -1.76267 -2.5
vertex 9.9487 -1.0117 -5
vertex 9.9487 -1.0117 -2.5
endloop
endfacet
facet normal 0.9884678192483453 -0.15143107445442117 0
outer loop
vertex 9.7953 -2.013 -2.5
vertex 9.7953 -2.013 -5
vertex 9.83365 -1.76267 -2.5
endloop
endfacet
facet normal 0.9680711132514759 -0.25067572616439776 0
outer loop
vertex 9.7953 -2.013 2.5
vertex 9.7953 -2.013 5
vertex 9.73182 -2.25815 2.5
endloop
endfacet
facet normal 0.9680759045239177 -0.2506572222706736 -0.000001936151808437007
outer loop
vertex 9.73182 -2.25815 2.5
vertex 9.7953 -2.013 5
vertex 9.5414 -2.9936 5
endloop
endfacet
facet normal 0.9680775015490924 -0.25065105424567213 0
outer loop
vertex 9.73182 -2.25815 2.5
vertex 9.5414 -2.9936 5
vertex 9.5414 -2.9936 2.5
endloop
endfacet
facet normal 0.9680759045239177 -0.2506572222706736 -0.000001936151809168616
outer loop
vertex 9.60488 -2.74845 -2.5
vertex 9.5414 -2.9936 -5
vertex 9.7953 -2.013 -5
endloop
endfacet
facet normal 0.968077501549093 -0.2506510542456698 0
outer loop
vertex 9.60488 -2.74845 -2.5
vertex 9.7953 -2.013 -5
vertex 9.7953 -2.013 -2.5
endloop
endfacet
facet normal 0.9680711132514741 -0.2506757261644048 0
outer loop
vertex 9.5414 -2.9936 -2.5
vertex 9.5414 -2.9936 -5
vertex 9.60488 -2.74845 -2.5
endloop
endfacet
facet normal 0.9377654299705052 -0.3472693455406534 0
outer loop
vertex 9.5414 -2.9936 2.5
vertex 9.5414 -2.9936 5
vertex 9.45345 -3.2311 2.5
endloop
endfacet
facet normal 0.9377654299705044 -0.34726934554065525 1.9726650417803944e-16
outer loop
vertex 9.45345 -3.2311 2.5
vertex 9.5414 -2.9936 5
vertex 9.1896 -3.9436 5
endloop
endfacet
facet normal 0.9377654299705043 -0.34726934554065586 0
outer loop
vertex 9.45345 -3.2311 2.5
vertex 9.1896 -3.9436 5
vertex 9.1896 -3.9436 2.5
endloop
endfacet
facet normal 0.9377654299705044 -0.34726934554065525 1.3699062790141628e-16
outer loop
vertex 9.27755 -3.7061 -2.5
vertex 9.1896 -3.9436 -5
vertex 9.5414 -2.9936 -5
endloop
endfacet
facet normal 0.9377654299705043 -0.34726934554065564 0
outer loop
vertex 9.27755 -3.7061 -2.5
vertex 9.5414 -2.9936 -5
vertex 9.5414 -2.9936 -2.5
endloop
endfacet
facet normal 0.9377654299705048 -0.347269345540654 0
outer loop
vertex 9.1896 -3.9436 -2.5
vertex 9.1896 -3.9436 -5
vertex 9.27755 -3.7061 -2.5
endloop
endfacet
facet normal 0.8978053188740208 -0.44039256283629247 0
outer loop
vertex 9.1896 -3.9436 2.5
vertex 9.1896 -3.9436 5
vertex 9.07808 -4.17095 2.5
endloop
endfacet
facet normal 0.8977975118858489 -0.44040847817492684 0.000001795595023780147
outer loop
vertex 9.07808 -4.17095 2.5
vertex 9.1896 -3.9436 5
vertex 8.7435 -4.853 5
endloop
endfacet
facet normal 0.8977949095258652 -0.44041378319648844 0
outer loop
vertex 9.07808 -4.17095 2.5
vertex 8.7435 -4.853 5
vertex 8.7435 -4.853 2.5
endloop
endfacet
facet normal 0.8977975118858489 -0.44040847817492684 -0.000001795595023780147
outer loop
vertex 8.85503 -4.62565 -2.5
vertex 8.7435 -4.853 -5
vertex 9.1896 -3.9436 -5
endloop
endfacet
facet normal 0.8978001142324662 -0.4404031731086535 0
outer loop
vertex 8.85503 -4.62565 -2.5
vertex 9.1896 -3.9436 -5
vertex 9.1896 -3.9436 -2.5
endloop
endfacet
facet normal 0.8977897047542233 -0.44042439309979703 0
outer loop
vertex 8.7435 -4.853 -2.5
vertex 8.7435 -4.853 -5
vertex 8.85503 -4.62565 -2.5
endloop
endfacet
facet normal 0.8486277022466789 -0.5289905698398809 0
outer loop
vertex 8.7435 -4.853 2.5
vertex 8.7435 -4.853 5
vertex 8.60953 -5.06792 2.5
endloop
endfacet
facet normal 0.8486243640959558 -0.5289959249959549 6.392568783292903e-7
outer loop
vertex 8.60953 -5.06792 2.5
vertex 8.7435 -4.853 5
vertex 8.2076 -5.7127 5
endloop
endfacet
facet normal 0.8486232514121204 -0.5289977099787116 0
outer loop
vertex 8.60953 -5.06792 2.5
vertex 8.2076 -5.7127 5
vertex 8.2076 -5.7127 2.5
endloop
endfacet
facet normal 0.8486243640929081 -0.5289959249940551 0.0000027552405776168645
outer loop
vertex 8.34157 -5.49777 -2.5
vertex 8.2076 -5.7127 -5
vertex 8.7435 -4.853 -5
endloop
endfacet
facet normal 0.8486195682721065 -0.5290036184617867 0
outer loop
vertex 8.34157 -5.49777 -2.5
vertex 8.7435 -4.853 -5
vertex 8.7435 -4.853 -2.5
endloop
endfacet
facet normal 0.8486387510286615 -0.528972844532225 0
outer loop
vertex 8.2076 -5.7127 -2.5
vertex 8.2076 -5.7127 -5
vertex 8.34157 -5.49777 -2.5
endloop
endfacet
facet normal 0.7907853664354985 -0.6120935420599324 0
outer loop
vertex 8.2076 -5.7127 2.5
vertex 8.2076 -5.7127 5
vertex 8.0526 -5.91295 2.5
endloop
endfacet
facet normal 0.790785366435497 -0.6120935420599344 2.466146408295871e-16
outer loop
vertex 8.0526 -5.91295 2.5
vertex 8.2076 -5.7127 5
vertex 7.5876 -6.5137 5
endloop
endfacet
facet normal 0.7907853664354965 -0.612093542059935 0
outer loop
vertex 8.0526 -5.91295 2.5
vertex 7.5876 -6.5137 5
vertex 7.5876 -6.5137 2.5
endloop
endfacet
facet normal 0.790785366435497 -0.6120935420599344 -3.288195211061161e-17
outer loop
vertex 7.7426 -6.31345 -2.5
vertex 7.5876 -6.5137 -5
vertex 8.2076 -5.7127 -5
endloop
endfacet
facet normal 0.7907853664354971 -0.6120935420599344 0
outer loop
vertex 7.7426 -6.31345 -2.5
vertex 8.2076 -5.7127 -5
vertex 8.2076 -5.7127 -2.5
endloop
endfacet
facet normal 0.7907853664354968 -0.6120935420599346 0
outer loop
vertex 7.5876 -6.5137 -2.5
vertex 7.5876 -6.5137 -5
vertex 7.7426 -6.31345 -2.5
endloop
endfacet
facet normal 0.7248071530090054 -0.6889518059682985 0
outer loop
vertex 7.5876 -6.5137 2.5
vertex 7.5876 -6.5137 5
vertex 7.41313 -6.69725 2.5
endloop
endfacet
facet normal 0.7247972936928121 -0.6889621782460007 0.0000014495945873898258
outer loop
vertex 7.41313 -6.69725 2.5
vertex 7.5876 -6.5137 5
vertex 6.8897 -7.2479 5
endloop
endfacet
facet normal 0.7247940072817181 -0.6889656355788065 0
outer loop
vertex 7.41313 -6.69725 2.5
vertex 6.8897 -7.2479 5
vertex 6.8897 -7.2479 2.5
endloop
endfacet
facet normal 0.7247972936928121 -0.6889621782460007 -0.0000014495945875213465
outer loop
vertex 7.06418 -7.06435 -2.5
vertex 6.8897 -7.2479 -5
vertex 7.5876 -6.5137 -5
endloop
endfacet
facet normal 0.7248005801187405 -0.6889587208676128 0
outer loop
vertex 7.06418 -7.06435 -2.5
vertex 7.5876 -6.5137 -5
vertex 7.5876 -6.5137 -2.5
endloop
endfacet
facet normal 0.7247874344979401 -0.6889725501018849 0
outer loop
vertex 6.8897 -7.2479 -2.5
vertex 6.8897 -7.2479 -5
vertex 7.06418 -7.06435 -2.5
endloop
endfacet
facet normal 0.6514057531379964 -0.7587295597106519 0
outer loop
vertex 6.8897 -7.2479 2.5
vertex 6.8897 -7.2479 5
vertex 6.69755 -7.41287 2.5
endloop
endfacet
facet normal 0.6514171184724825 -0.7587198018759659 -0.0000015174396038683376
outer loop
vertex 6.69755 -7.41287 2.5
vertex 6.8897 -7.2479 5
vertex 6.1211 -7.9078 5
endloop
endfacet
facet normal 0.651420906820867 -0.7587165492835115 0
outer loop
vertex 6.69755 -7.41287 2.5
vertex 6.1211 -7.9078 5
vertex 6.1211 -7.9078 2.5
endloop
endfacet
facet normal 0.6514171184724825 -0.7587198018759659 0.0000015174396037532626
outer loop
vertex 6.31325 -7.74282 -2.5
vertex 6.1211 -7.9078 -5
vertex 6.8897 -7.2479 -5
endloop
endfacet
facet normal 0.6514133300768766 -0.7587230544791388 0
outer loop
vertex 6.31325 -7.74282 -2.5
vertex 6.8897 -7.2479 -5
vertex 6.8897 -7.2479 -2.5
endloop
endfacet
facet normal 0.6514284833699722 -0.7587100441237732 0
outer loop
vertex 6.1211 -7.9078 -2.5
vertex 6.1211 -7.9078 -5
vertex 6.31325 -7.74282 -2.5
endloop
endfacet
facet normal 0.5711836482832727 -0.8208222949785237 0
outer loop
vertex 6.1211 -7.9078 2.5
vertex 6.1211 -7.9078 5
vertex 5.91323 -8.05245 2.5
endloop
endfacet
facet normal 0.571174391780703 -0.8208287362005786 0.0000011423487837656658
outer loop
vertex 5.91323 -8.05245 2.5
vertex 6.1211 -7.9078 5
vertex 5.2896 -8.4864 5
endloop
endfacet
facet normal 0.5711713063308727 -0.8208308832057214 0
outer loop
vertex 5.91323 -8.05245 2.5
vertex 5.2896 -8.4864 5
vertex 5.2896 -8.4864 2.5
endloop
endfacet
facet normal 0.571174391780703 -0.8208287362005786 -0.0000011423487834752326
outer loop
vertex 5.49748 -8.34175 -2.5
vertex 5.2896 -8.4864 -5
vertex 6.1211 -7.9078 -5
endloop
endfacet
facet normal 0.5711774772565426 -0.8208265891617132 0
outer loop
vertex 5.49748 -8.34175 -2.5
vertex 6.1211 -7.9078 -5
vertex 6.1211 -7.9078 -2.5
endloop
endfacet
facet normal 0.5711651355062618 -0.8208351771105534 0
outer loop
vertex 5.2896 -8.4864 -2.5
vertex 5.2896 -8.4864 -5
vertex 5.49748 -8.34175 -2.5
endloop
endfacet
facet normal 0.48530761991788485 -0.8743434760147968 0
outer loop
vertex 5.2896 -8.4864 2.5
vertex 5.2896 -8.4864 5
vertex 5.06818 -8.6093 2.5
endloop
endfacet
facet normal 0.4852992421545952 -0.8743481260706365 9.705984841161482e-7
outer loop
vertex 5.06818 -8.6093 2.5
vertex 5.2896 -8.4864 5
vertex 4.4039 -8.978 5
endloop
endfacet
facet normal 0.48529644962151264 -0.8743496760362839 0
outer loop
vertex 5.06818 -8.6093 2.5
vertex 4.4039 -8.978 5
vertex 4.4039 -8.978 2.5
endloop
endfacet
facet normal 0.4852992421545952 -0.8743481260706365 -9.705984844285064e-7
outer loop
vertex 4.62533 -8.8551 -2.5
vertex 4.4039 -8.978 -5
vertex 5.2896 -8.4864 -5
endloop
endfacet
facet normal 0.4853020347153235 -0.8743465760790551 0
outer loop
vertex 4.62533 -8.8551 -2.5
vertex 5.2896 -8.4864 -5
vertex 5.2896 -8.4864 -2.5
endloop
endfacet
facet normal 0.4852908646364498 -0.874352775886488 0
outer loop
vertex 4.4039 -8.978 -2.5
vertex 4.4039 -8.978 -5
vertex 4.62533 -8.8551 -2.5
endloop
endfacet
facet normal 0.3943910894237897 -0.9189426905869137 0
outer loop
vertex 4.4039 -8.978 2.5
vertex 4.4039 -8.978 5
vertex 4.1712 -9.07787 2.5
endloop
endfacet
facet normal 0.39440776319406157 -0.9189355343705451 -0.0000018378710683984768
outer loop
vertex 4.1712 -9.07787 2.5
vertex 4.4039 -8.978 5
vertex 3.4731 -9.3775 5
endloop
endfacet
facet normal 0.39441332103180904 -0.9189331489246969 0
outer loop
vertex 4.1712 -9.07787 2.5
vertex 3.4731 -9.3775 5
vertex 3.4731 -9.3775 2.5
endloop
endfacet
facet normal 0.39440776319406157 -0.9189355343705451 0.0000018378710683655945
outer loop
vertex 3.7058 -9.27762 -2.5
vertex 3.4731 -9.3775 -5
vertex 4.4039 -8.978 -5
endloop
endfacet
facet normal 0.39440220531436404 -0.918937919798267 0
outer loop
vertex 3.7058 -9.27762 -2.5
vertex 4.4039 -8.978 -5
vertex 4.4039 -8.978 -2.5
endloop
endfacet
facet normal 0.3944244365761234 -0.9189283779662087 0
outer loop
vertex 3.4731 -9.3775 -2.5
vertex 3.4731 -9.3775 -5
vertex 3.7058 -9.27762 -2.5
endloop
endfacet
facet normal 0.2993696772248905 -0.9541371999656364 0
outer loop
vertex 3.4731 -9.3775 2.5
vertex 3.4731 -9.3775 5
vertex 3.23145 -9.45332 2.5
endloop
endfacet
facet normal 0.2993876498628883 -0.9541315606906288 -0.00000190826312129465
outer loop
vertex 3.23145 -9.45332 2.5
vertex 3.4731 -9.3775 5
vertex 2.5065 -9.6808 5
endloop
endfacet
facet normal 0.29939364067213053 -0.9541296808741919 0
outer loop
vertex 3.23145 -9.45332 2.5
vertex 2.5065 -9.6808 5
vertex 2.5065 -9.6808 2.5
endloop
endfacet
facet normal 0.2993876498628883 -0.9541315606906288 0.0000019082631213220474
outer loop
vertex 2.74815 -9.60497 -2.5
vertex 2.5065 -9.6808 -5
vertex 3.4731 -9.3775 -5
endloop
endfacet
facet normal 0.2993816590193273 -0.954133440480332 0
outer loop
vertex 2.74815 -9.60497 -2.5
vertex 3.4731 -9.3775 -5
vertex 3.4731 -9.3775 -2.5
endloop
endfacet
facet normal 0.29940562218329664 -0.954125921147221 0
outer loop
vertex 2.5065 -9.6808 -2.5
vertex 2.5065 -9.6808 -5
vertex 2.74815 -9.60497 -2.5
endloop
endfacet
facet normal 0.20129099798805022 -0.979531487053364 0
outer loop
vertex 2 -9.78489 -0.10482
vertex 1.5143 -9.8847 -5
vertex 2 -9.78489 -5
endloop
endfacet
facet normal 0.20129099798805022 -0.9795314870533641 0
outer loop
vertex 2 -9.78489 -0.10482
vertex 2 -9.78489 5
vertex 1.5143 -9.8847 5
endloop
endfacet
facet normal 0.20129099798805025 -0.9795314870533641 0
outer loop
vertex 2 -9.78489 -0.10482
vertex 1.5143 -9.8847 5
vertex 1.5143 -9.8847 -5
endloop
endfacet
facet normal 0.20131530168280787 -0.9795264923974032 0
outer loop
vertex 2.25845 -9.73178 2.5
vertex 2.5065 -9.6808 2.5
vertex 2.5065 -9.6808 5
endloop
endfacet
facet normal 0.2013014963836768 -0.9795293296025669 0.0000014276180674812355
outer loop
vertex 2.25845 -9.73178 2.5
vertex 2.5065 -9.6808 5
vertex 2 -9.78489 5
endloop
endfacet
facet normal 0.20128824649587476 -0.9795320524733307 0
outer loop
vertex 2.25845 -9.73178 2.5
vertex 2 -9.78489 5
vertex 2 -9.78489 2.5
endloop
endfacet
facet normal 0.20130149638388195 -0.9795293296035652 0
outer loop
vertex 2 -9.78489 -2.5
vertex 2 -9.78489 -5
vertex 2.5065 -9.6808 -5
endloop
endfacet
facet normal 0.20130149638388195 -0.9795293296035652 0
outer loop
vertex 2 -9.78489 -2.5
vertex 2.5065 -9.6808 -5
vertex 2.5065 -9.6808 -2.5
endloop
endfacet
facet normal 0.10118469436460001 -0.9948676583477535 0
outer loop
vertex 1.5143 -9.8847 -5
vertex 1.5143 -9.8847 5
vertex 0.5065 -9.9872 -5
endloop
endfacet
facet normal 0.10118469436460001 -0.9948676583477535 0
outer loop
vertex 0.5065 -9.9872 -5
vertex 1.5143 -9.8847 5
vertex 0.5065 -9.9872 5
endloop
endfacet
facet normal 0 -1 0
outer loop
vertex 0.5065 -9.9872 -5
vertex 0.5065 -9.9872 5
vertex -0.5065 -9.9872 -5
endloop
endfacet
facet normal 0 -1 0
outer loop
vertex -0.5065 -9.9872 -5
vertex 0.5065 -9.9872 5
vertex -0.5065 -9.9872 5
endloop
endfacet
facet normal -0.10118469436460001 -0.9948676583477535 0
outer loop
vertex -0.5065 -9.9872 -5
vertex -0.5065 -9.9872 5
vertex -1.5143 -9.8847 -5
endloop
endfacet
facet normal -0.10118469436460001 -0.9948676583477535 0
outer loop
vertex -1.5143 -9.8847 -5
vertex -0.5065 -9.9872 5
vertex -1.5143 -9.8847 5
endloop
endfacet
facet normal -0.2012963572362749 -0.9795303857274699 0
outer loop
vertex -1.5143 -9.8847 -5
vertex -1.5143 -9.8847 5
vertex -2.5065 -9.6808 -5
endloop
endfacet
facet normal -0.2012963572362749 -0.9795303857274699 0
outer loop
vertex -2.5065 -9.6808 -5
vertex -1.5143 -9.8847 5
vertex -2.5065 -9.6808 5
endloop
endfacet
facet normal -0.2993876498634334 -0.954131560692366 0
outer loop
vertex -2.5065 -9.6808 -5
vertex -2.5065 -9.6808 5
vertex -3.4731 -9.3775 -5
endloop
endfacet
facet normal -0.2993876498634334 -0.954131560692366 0
outer loop
vertex -3.4731 -9.3775 -5
vertex -2.5065 -9.6808 5
vertex -3.4731 -9.3775 5
endloop
endfacet
facet normal -0.3944077631947277 -0.918935534372097 0
outer loop
vertex -3.4731 -9.3775 -5
vertex -3.4731 -9.3775 5
vertex -4.4039 -8.978 -5
endloop
endfacet
facet normal -0.3944077631947277 -0.918935534372097 0
outer loop
vertex -4.4039 -8.978 -5
vertex -3.4731 -9.3775 5
vertex -4.4039 -8.978 5
endloop
endfacet
facet normal -0.48529924215482373 -0.8743481260710483 0
outer loop
vertex -4.4039 -8.978 -5
vertex -4.4039 -8.978 5
vertex -5.2896 -8.4864 -5
endloop
endfacet
facet normal -0.48529924215482373 -0.8743481260710483 0
outer loop
vertex -5.2896 -8.4864 -5
vertex -4.4039 -8.978 5
vertex -5.2896 -8.4864 5
endloop
endfacet
facet normal -0.5711743917810757 -0.8208287362011142 0
outer loop
vertex -5.2896 -8.4864 -5
vertex -5.2896 -8.4864 5
vertex -6.1211 -7.9078 -5
endloop
endfacet
facet normal -0.5711743917810757 -0.8208287362011142 0
outer loop
vertex -6.1211 -7.9078 -5
vertex -5.2896 -8.4864 5
vertex -6.1211 -7.9078 5
endloop
endfacet
facet normal -0.6514171184732326 -0.7587198018768394 0
outer loop
vertex -6.1211 -7.9078 -5
vertex -6.1211 -7.9078 5
vertex -6.8897 -7.2479 -5
endloop
endfacet
facet normal -0.6514171184732326 -0.7587198018768394 0
outer loop
vertex -6.8897 -7.2479 -5
vertex -6.1211 -7.9078 5
vertex -6.8897 -7.2479 5
endloop
endfacet
facet normal -0.7247972936935737 -0.6889621782467247 0
outer loop
vertex -6.8897 -7.2479 -5
vertex -6.8897 -7.2479 5
vertex -7.5876 -6.5137 -5
endloop
endfacet
facet normal -0.7247972936935737 -0.6889621782467247 0
outer loop
vertex -7.5876 -6.5137 -5
vertex -6.8897 -7.2479 5
vertex -7.5876 -6.5137 5
endloop
endfacet
facet normal -0.790785366435497 -0.6120935420599344 0
outer loop
vertex -7.5876 -6.5137 -5
vertex -7.5876 -6.5137 5
vertex -8.2076 -5.7127 -5
endloop
endfacet
facet normal -0.790785366435497 -0.6120935420599344 0
outer loop
vertex -8.2076 -5.7127 -5
vertex -7.5876 -6.5137 5
vertex -8.2076 -5.7127 5
endloop
endfacet
facet normal -0.8486243640961293 -0.5289959249960631 0
outer loop
vertex -8.2076 -5.7127 -5
vertex -8.2076 -5.7127 5
vertex -8.7435 -4.853 -5
endloop
endfacet
facet normal -0.8486243640961293 -0.5289959249960631 0
outer loop
vertex -8.7435 -4.853 -5
vertex -8.2076 -5.7127 5
vertex -8.7435 -4.853 5
endloop
endfacet
facet normal -0.8977975118872962 -0.4404084781756368 0
outer loop
vertex -8.7435 -4.853 -5
vertex -8.7435 -4.853 5
vertex -9.1896 -3.9436 -5
endloop
endfacet
facet normal -0.8977975118872962 -0.4404084781756368 0
outer loop
vertex -9.1896 -3.9436 -5
vertex -8.7435 -4.853 5
vertex -9.1896 -3.9436 5
endloop
endfacet
facet normal -0.9377654299705044 -0.34726934554065525 0
outer loop
vertex -9.1896 -3.9436 -5
vertex -9.1896 -3.9436 5
vertex -9.5414 -2.9936 -5
endloop
endfacet
facet normal -0.9377654299705044 -0.34726934554065525 0
outer loop
vertex -9.5414 -2.9936 -5
vertex -9.1896 -3.9436 5
vertex -9.5414 -2.9936 5
endloop
endfacet
facet normal -0.9680759045257322 -0.2506572222711434 0
outer loop
vertex -9.5414 -2.9936 -5
vertex -9.5414 -2.9936 5
vertex -9.7953 -2.013 -5
endloop
endfacet
facet normal -0.9680759045257322 -0.2506572222711434 0
outer loop
vertex -9.7953 -2.013 -5
vertex -9.5414 -2.9936 5
vertex -9.7953 -2.013 5
endloop
endfacet
facet normal -0.9884673664942781 -0.15143402978150763 0
outer loop
vertex -9.7953 -2.013 -5
vertex -9.7953 -2.013 5
vertex -9.9487 -1.0117 -5
endloop
endfacet
facet normal -0.9884673664942781 -0.15143402978150763 0
outer loop
vertex -9.9487 -1.0117 -5
vertex -9.7953 -2.013 5
vertex -9.9487 -1.0117 5
endloop
endfacet
facet normal -0.9987168875015401 -0.050641668803823724 0
outer loop
vertex -9.9487 -1.0117 -5
vertex -9.9487 -1.0117 5
vertex -10 0 -5
endloop
endfacet
facet normal -0.9987168875015401 -0.050641668803823724 0
outer loop
vertex -10 0 -5
vertex -9.9487 -1.0117 5
vertex -10 0 5
endloop
endfacet
facet normal -0.9987168875015401 0.050641668803823724 0
outer loop
vertex -10 0 -5
vertex -10 0 5
vertex -9.9487 1.0117 -5
endloop
endfacet
facet normal -0.9987168875015401 0.050641668803823724 0
outer loop
vertex -9.9487 1.0117 -5
vertex -10 0 5
vertex -9.9487 1.0117 5
endloop
endfacet
facet normal -0.9884673664942781 0.15143402978150763 0
outer loop
vertex -9.9487 1.0117 -5
vertex -9.9487 1.0117 5
vertex -9.7953 2.013 -5
endloop
endfacet
facet normal -0.9884673664942781 0.15143402978150763 0
outer loop
vertex -9.7953 2.013 -5
vertex -9.9487 1.0117 5
vertex -9.7953 2.013 5
endloop
endfacet
facet normal -0.9680759045257322 0.2506572222711434 0
outer loop
vertex -9.7953 2.013 -5
vertex -9.7953 2.013 5
vertex -9.5414 2.9936 -5
endloop
endfacet
facet normal -0.9680759045257322 0.2506572222711434 0
outer loop
vertex -9.5414 2.9936 -5
vertex -9.7953 2.013 5
vertex -9.5414 2.9936 5
endloop
endfacet
facet normal -0.9377654299705044 0.34726934554065525 0
outer loop
vertex -9.5414 2.9936 -5
vertex -9.5414 2.9936 5
vertex -9.1896 3.9436 -5
endloop
endfacet
facet normal -0.9377654299705044 0.34726934554065525 0
outer loop
vertex -9.1896 3.9436 -5
vertex -9.5414 2.9936 5
vertex -9.1896 3.9436 5
endloop
endfacet
facet normal -0.8977975118872962 0.4404084781756368 0
outer loop
vertex -9.1896 3.9436 -5
vertex -9.1896 3.9436 5
vertex -8.7435 4.853 -5
endloop
endfacet
facet normal -0.8977975118872962 0.4404084781756368 0
outer loop
vertex -8.7435 4.853 -5
vertex -9.1896 3.9436 5
vertex -8.7435 4.853 5
endloop
endfacet
facet normal -0.8486243640961293 0.5289959249960631 0
outer loop
vertex -8.7435 4.853 -5
vertex -8.7435 4.853 5
vertex -8.2076 5.7127 -5
endloop
endfacet
facet normal -0.8486243640961293 0.5289959249960631 0
outer loop
vertex -8.2076 5.7127 -5
vertex -8.7435 4.853 5
vertex -8.2076 5.7127 5
endloop
endfacet
facet normal -0.790785366435497 0.6120935420599344 0
outer loop
vertex -8.2076 5.7127 -5
vertex -8.2076 5.7127 5
vertex -7.5876 6.5137 -5
endloop
endfacet
facet normal -0.790785366435497 0.6120935420599344 0
outer loop
vertex -7.5876 6.5137 -5
vertex -8.2076 5.7127 5
vertex -7.5876 6.5137 5
endloop
endfacet
facet normal -0.7247972936935737 0.6889621782467247 0
outer loop
vertex -7.5876 6.5137 -5
vertex -7.5876 6.5137 5
vertex -6.8897 7.2479 -5
endloop
endfacet
facet normal -0.7247972936935737 0.6889621782467247 0
outer loop
vertex -6.8897 7.2479 -5
vertex -7.5876 6.5137 5
vertex -6.8897 7.2479 5
endloop
endfacet
facet normal -0.6514171184732326 0.7587198018768394 0
outer loop
vertex -6.8897 7.2479 -5
vertex -6.8897 7.2479 5
vertex -6.1211 7.9078 -5
endloop
endfacet
facet normal -0.6514171184732326 0.7587198018768394 0
outer loop
vertex -6.1211 7.9078 -5
vertex -6.8897 7.2479 5
vertex -6.1211 7.9078 5
endloop
endfacet
facet normal -0.5711743917810757 0.8208287362011142 0
outer loop
vertex -6.1211 7.9078 -5
vertex -6.1211 7.9078 5
vertex -5.2896 8.4864 -5
endloop
endfacet
facet normal -0.5711743917810757 0.8208287362011142 0
outer loop
vertex -5.2896 8.4864 -5
vertex -6.1211 7.9078 5
vertex -5.2896 8.4864 5
endloop
endfacet
facet normal -0.48529924215482373 0.8743481260710483 0
outer loop
vertex -5.2896 8.4864 -5
vertex -5.2896 8.4864 5
vertex -4.4039 8.978 -5
endloop
endfacet
facet normal -0.48529924215482373 0.8743481260710483 0
outer loop
vertex -4.4039 8.978 -5
vertex -5.2896 8.4864 5
vertex -4.4039 8.978 5
endloop
endfacet
facet normal -0.3944077631947277 0.918935534372097 0
outer loop
vertex -4.4039 8.978 -5
vertex -4.4039 8.978 5
vertex -3.4731 9.3775 -5
endloop
endfacet
facet normal -0.3944077631947277 0.918935534372097 0
outer loop
vertex -3.4731 9.3775 -5
vertex -4.4039 8.978 5
vertex -3.4731 9.3775 5
endloop
endfacet
facet normal -0.2993876498634334 0.954131560692366 0
outer loop
vertex -3.4731 9.3775 -5
vertex -3.4731 9.3775 5
vertex -2.5065 9.6808 -5
endloop
endfacet
facet normal -0.2993876498634334 0.954131560692366 0
outer loop
vertex -2.5065 9.6808 -5
vertex -3.4731 9.3775 5
vertex -2.5065 9.6808 5
endloop
endfacet
facet normal -0.2012963572362749 0.9795303857274699 0
outer loop
vertex -2.5065 9.6808 -5
vertex -2.5065 9.6808 5
vertex -1.5143 9.8847 -5
endloop
endfacet
facet normal -0.2012963572362749 0.9795303857274699 0
outer loop
vertex -1.5143 9.8847 -5
vertex -2.5065 9.6808 5
vertex -1.5143 9.8847 5
endloop
endfacet
facet normal -0.10118469436460001 0.9948676583477535 0
outer loop
vertex -1.5143 9.8847 -5
vertex -1.5143 9.8847 5
vertex -0.5065 9.9872 -5
endloop
endfacet
facet normal -0.10118469436460001 0.9948676583477535 0
outer loop
vertex -0.5065 9.9872 -5
vertex -1.5143 9.8847 5
vertex -0.5065 9.9872 5
endloop
endfacet
facet normal 0 1 0
outer loop
vertex -0.5065 9.9872 -5
vertex -0.5065 9.9872 5
vertex 0.5065 9.9872 -5
endloop
endfacet
facet normal 0 1 0
outer loop
vertex 0.5065 9.9872 -5
vertex -0.5065 9.9872 5
vertex 0.5065 9.9872 5
endloop
endfacet
facet normal 0.10118469436460001 0.9948676583477535 0
outer loop
vertex 0.5065 9.9872 -5
vertex 0.5065 9.9872 5
vertex 1.5143 9.8847 -5
endloop
endfacet
facet normal 0.10118469436460001 0.9948676583477535 0
outer loop
vertex 1.5143 9.8847 -5
vertex 0.5065 9.9872 5
vertex 1.5143 9.8847 5
endloop
endfacet
facet normal 0.20129099798805028 0.9795314870533641 0
outer loop
vertex 1.5143 9.8847 5
vertex 2 9.78489 0.10482
vertex 2 9.78489 -5
endloop
endfacet
facet normal 0.20129099798805025 0.9795314870533641 0
outer loop
vertex 1.5143 9.8847 5
vertex 2 9.78489 -5
vertex 1.5143 9.8847 -5
endloop
endfacet
facet normal 0.20129099798805022 0.979531487053364 0
outer loop
vertex 2 9.78489 0.10482
vertex 1.5143 9.8847 5
vertex 2 9.78489 5
endloop
endfacet
facet normal 0.20130149638388195 0.9795293296035652 0
outer loop
vertex 2 9.78489 2.5
vertex 2 9.78489 5
vertex 2.5065 9.6808 5
endloop
endfacet
facet normal 0.20130149638388195 0.9795293296035652 0
outer loop
vertex 2 9.78489 2.5
vertex 2.5065 9.6808 5
vertex 2.5065 9.6808 2.5
endloop
endfacet
facet normal 0.2013014963836768 0.9795293296025669 -0.0000014276180674812355
outer loop
vertex 2.25845 9.73178 -2.5
vertex 2.5065 9.6808 -5
vertex 2 9.78489 -5
endloop
endfacet
facet normal 0.20128824649587476 0.9795320524733307 0
outer loop
vertex 2.25845 9.73178 -2.5
vertex 2 9.78489 -5
vertex 2 9.78489 -2.5
endloop
endfacet
facet normal 0.20131530168280787 0.9795264923974032 0
outer loop
vertex 2.5065 9.6808 -2.5
vertex 2.5065 9.6808 -5
vertex 2.25845 9.73178 -2.5
endloop
endfacet
facet normal 0.2993696772248905 0.9541371999656364 0
outer loop
vertex 2.5065 9.6808 2.5
vertex 2.5065 9.6808 5
vertex 2.74815 9.60498 2.5
endloop
endfacet
facet normal 0.2993876498628883 0.9541315606906288 0.00000190826312129465
outer loop
vertex 2.74815 9.60498 2.5
vertex 2.5065 9.6808 5
vertex 3.4731 9.3775 5
endloop
endfacet
facet normal 0.29939364067213053 0.9541296808741919 0
outer loop
vertex 2.74815 9.60498 2.5
vertex 3.4731 9.3775 5
vertex 3.4731 9.3775 2.5
endloop
endfacet
facet normal 0.2993876498628883 0.9541315606906288 -0.0000019082631213220474
outer loop
vertex 3.23145 9.45333 -2.5
vertex 3.4731 9.3775 -5
vertex 2.5065 9.6808 -5
endloop
endfacet
facet normal 0.2993816590193273 0.954133440480332 0
outer loop
vertex 3.23145 9.45333 -2.5
vertex 2.5065 9.6808 -5
vertex 2.5065 9.6808 -2.5
endloop
endfacet
facet normal 0.29940562218329664 0.954125921147221 0
outer loop
vertex 3.4731 9.3775 -2.5
vertex 3.4731 9.3775 -5
vertex 3.23145 9.45333 -2.5
endloop
endfacet
facet normal 0.3943910894237844 0.918942690586916 0
outer loop
vertex 3.4731 9.3775 2.5
vertex 3.4731 9.3775 5
vertex 3.7058 9.27763 2.5
endloop
endfacet
facet normal 0.39440776319406157 0.9189355343705451 0.0000018378710689793946
outer loop
vertex 3.7058 9.27763 2.5
vertex 3.4731 9.3775 5
vertex 4.4039 8.978 5
endloop
endfacet
facet normal 0.39441332103181076 0.9189331489246961 0
outer loop
vertex 3.7058 9.27763 2.5
vertex 4.4039 8.978 5
vertex 4.4039 8.978 2.5
endloop
endfacet
facet normal 0.39440776319406157 0.9189355343705451 -0.0000018378710689465126
outer loop
vertex 4.1712 9.07788 -2.5
vertex 4.4039 8.978 -5
vertex 3.4731 9.3775 -5
endloop
endfacet
facet normal 0.39440220531436226 0.9189379197982678 0
outer loop
vertex 4.1712 9.07788 -2.5
vertex 3.4731 9.3775 -5
vertex 3.4731 9.3775 -2.5
endloop
endfacet
facet normal 0.3944244365761287 0.9189283779662065 0
outer loop
vertex 4.4039 8.978 -2.5
vertex 4.4039 8.978 -5
vertex 4.1712 9.07788 -2.5
endloop
endfacet
facet normal 0.4852908646364498 0.874352775886488 0
outer loop
vertex 4.4039 8.978 2.5
vertex 4.4039 8.978 5
vertex 4.62533 8.8551 2.5
endloop
endfacet
facet normal 0.4852992421545952 0.8743481260706365 9.705984844285064e-7
outer loop
vertex 4.62533 8.8551 2.5
vertex 4.4039 8.978 5
vertex 5.2896 8.4864 5
endloop
endfacet
facet normal 0.4853020347153235 0.8743465760790551 0
outer loop
vertex 4.62533 8.8551 2.5
vertex 5.2896 8.4864 5
vertex 5.2896 8.4864 2.5
endloop
endfacet
facet normal 0.4852992421545952 0.8743481260706365 -9.705984841161482e-7
outer loop
vertex 5.06818 8.6093 -2.5
vertex 5.2896 8.4864 -5
vertex 4.4039 8.978 -5
endloop
endfacet
facet normal 0.48529644962151264 0.8743496760362839 0
outer loop
vertex 5.06818 8.6093 -2.5
vertex 4.4039 8.978 -5
vertex 4.4039 8.978 -2.5
endloop
endfacet
facet normal 0.48530761991788485 0.8743434760147968 0
outer loop
vertex 5.2896 8.4864 -2.5
vertex 5.2896 8.4864 -5
vertex 5.06818 8.6093 -2.5
endloop
endfacet
facet normal 0.5711651355062618 0.8208351771105534 0
outer loop
vertex 5.2896 8.4864 2.5
vertex 5.2896 8.4864 5
vertex 5.49748 8.34175 2.5
endloop
endfacet
facet normal 0.571174391780703 0.8208287362005786 0.0000011423487834752326
outer loop
vertex 5.49748 8.34175 2.5
vertex 5.2896 8.4864 5
vertex 6.1211 7.9078 5
endloop
endfacet
facet normal 0.5711774772565426 0.8208265891617132 0
outer loop
vertex 5.49748 8.34175 2.5
vertex 6.1211 7.9078 5
vertex 6.1211 7.9078 2.5
endloop
endfacet
facet normal 0.571174391780703 0.8208287362005786 -0.0000011423487837656658
outer loop
vertex 5.91323 8.05245 -2.5
vertex 6.1211 7.9078 -5
vertex 5.2896 8.4864 -5
endloop
endfacet
facet normal 0.5711713063308727 0.8208308832057214 0
outer loop
vertex 5.91323 8.05245 -2.5
vertex 5.2896 8.4864 -5
vertex 5.2896 8.4864 -2.5
endloop
endfacet
facet normal 0.5711836482832727 0.8208222949785237 0
outer loop
vertex 6.1211 7.9078 -2.5
vertex 6.1211 7.9078 -5
vertex 5.91323 8.05245 -2.5
endloop
endfacet
facet normal 0.6514057531379981 0.7587295597106505 0
outer loop
vertex 6.1211 7.9078 2.5
vertex 6.1211 7.9078 5
vertex 6.31325 7.74283 2.5
endloop
endfacet
facet normal 0.6514171184724825 0.7587198018759659 0.000001517439603638188
outer loop
vertex 6.31325 7.74283 2.5
vertex 6.1211 7.9078 5
vertex 6.8897 7.2479 5
endloop
endfacet
facet normal 0.6514209068208665 0.7587165492835121 0
outer loop
vertex 6.31325 7.74283 2.5
vertex 6.8897 7.2479 5
vertex 6.8897 7.2479 2.5
endloop
endfacet
facet normal 0.6514171184724825 0.7587198018759659 -0.0000015174396037861413
outer loop
vertex 6.69755 7.41288 -2.5
vertex 6.8897 7.2479 -5
vertex 6.1211 7.9078 -5
endloop
endfacet
facet normal 0.6514133300768765 0.7587230544791389 0
outer loop
vertex 6.69755 7.41288 -2.5
vertex 6.1211 7.9078 -5
vertex 6.1211 7.9078 -2.5
endloop
endfacet
facet normal 0.6514284833699725 0.758710044123773 0
outer loop
vertex 6.8897 7.2479 -2.5
vertex 6.8897 7.2479 -5
vertex 6.69755 7.41288 -2.5
endloop
endfacet
facet normal 0.7247874344979401 0.6889725501018849 0
outer loop
vertex 6.8897 7.2479 2.5
vertex 6.8897 7.2479 5
vertex 7.06418 7.06435 2.5
endloop
endfacet
facet normal 0.7247972936928121 0.6889621782460007 0.0000014495945875213465
outer loop
vertex 7.06418 7.06435 2.5
vertex 6.8897 7.2479 5
vertex 7.5876 6.5137 5
endloop
endfacet
facet normal 0.7248005801187405 0.6889587208676128 0
outer loop
vertex 7.06418 7.06435 2.5
vertex 7.5876 6.5137 5
vertex 7.5876 6.5137 2.5
endloop
endfacet
facet normal 0.7247972936928121 0.6889621782460007 -0.0000014495945873898258
outer loop
vertex 7.41313 6.69725 -2.5
vertex 7.5876 6.5137 -5
vertex 6.8897 7.2479 -5
endloop
endfacet
facet normal 0.7247940072817181 0.6889656355788065 0
outer loop
vertex 7.41313 6.69725 -2.5
vertex 6.8897 7.2479 -5
vertex 6.8897 7.2479 -2.5
endloop
endfacet
facet normal 0.7248071530090054 0.6889518059682985 0
outer loop
vertex 7.5876 6.5137 -2.5
vertex 7.5876 6.5137 -5
vertex 7.41313 6.69725 -2.5
endloop
endfacet
facet normal 0.7907853664354968 0.6120935420599346 0
outer loop
vertex 7.5876 6.5137 2.5
vertex 7.5876 6.5137 5
vertex 7.7426 6.31345 2.5
endloop
endfacet
facet normal 0.790785366435497 0.6120935420599344 3.288195211061161e-17
outer loop
vertex 7.7426 6.31345 2.5
vertex 7.5876 6.5137 5
vertex 8.2076 5.7127 5
endloop
endfacet
facet normal 0.7907853664354971 0.6120935420599344 0
outer loop
vertex 7.7426 6.31345 2.5
vertex 8.2076 5.7127 5
vertex 8.2076 5.7127 2.5
endloop
endfacet
facet normal 0.790785366435497 0.6120935420599344 -2.466146408295871e-16
outer loop
vertex 8.0526 5.91295 -2.5
vertex 8.2076 5.7127 -5
vertex 7.5876 6.5137 -5
endloop
endfacet
facet normal 0.7907853664354965 0.612093542059935 0
outer loop
vertex 8.0526 5.91295 -2.5
vertex 7.5876 6.5137 -5
vertex 7.5876 6.5137 -2.5
endloop
endfacet
facet normal 0.7907853664354985 0.6120935420599324 0
outer loop
vertex 8.2076 5.7127 -2.5
vertex 8.2076 5.7127 -5
vertex 8.0526 5.91295 -2.5
endloop
endfacet
facet normal 0.8486277022466758 0.5289905698398859 0
outer loop
vertex 8.2076 5.7127 2.5
vertex 8.2076 5.7127 5
vertex 8.34157 5.49778 2.5
endloop
endfacet
facet normal 0.8486243640959558 0.5289959249959549 -6.392568777210548e-7
outer loop
vertex 8.34157 5.49778 2.5
vertex 8.2076 5.7127 5
vertex 8.7435 4.853 5
endloop
endfacet
facet normal 0.8486232514121215 0.52899770997871 0
outer loop
vertex 8.34157 5.49778 2.5
vertex 8.7435 4.853 5
vertex 8.7435 4.853 2.5
endloop
endfacet
facet normal 0.8486243640929081 0.5289959249940551 -0.0000027552405782250998
outer loop
vertex 8.60953 5.06793 -2.5
vertex 8.7435 4.853 -5
vertex 8.2076 5.7127 -5
endloop
endfacet
facet normal 0.8486195682721055 0.5290036184617883 0
outer loop
vertex 8.60953 5.06793 -2.5
vertex 8.2076 5.7127 -5
vertex 8.2076 5.7127 -2.5
endloop
endfacet
facet normal 0.8486387510286647 0.5289728445322199 0
outer loop
vertex 8.7435 4.853 -2.5
vertex 8.7435 4.853 -5
vertex 8.60953 5.06793 -2.5
endloop
endfacet
facet normal 0.8977897047542233 0.44042439309979703 0
outer loop
vertex 8.7435 4.853 2.5
vertex 8.7435 4.853 5
vertex 8.85503 4.62565 2.5
endloop
endfacet
facet normal 0.8977975118858489 0.44040847817492684 0.000001795595023780147
outer loop
vertex 8.85503 4.62565 2.5
vertex 8.7435 4.853 5
vertex 9.1896 3.9436 5
endloop
endfacet
facet normal 0.8978001142324662 0.4404031731086535 0
outer loop
vertex 8.85503 4.62565 2.5
vertex 9.1896 3.9436 5
vertex 9.1896 3.9436 2.5
endloop
endfacet
facet normal 0.8977975118858489 0.44040847817492684 -0.000001795595023780147
outer loop
vertex 9.07808 4.17095 -2.5
vertex 9.1896 3.9436 -5
vertex 8.7435 4.853 -5
endloop
endfacet
facet normal 0.8977949095258652 0.44041378319648844 0
outer loop
vertex 9.07808 4.17095 -2.5
vertex 8.7435 4.853 -5
vertex 8.7435 4.853 -2.5
endloop
endfacet
facet normal 0.8978053188740208 0.44039256283629247 0
outer loop
vertex 9.1896 3.9436 -2.5
vertex 9.1896 3.9436 -5
vertex 9.07808 4.17095 -2.5
endloop
endfacet
facet normal 0.9377654299705048 0.347269345540654 0
outer loop
vertex 9.1896 3.9436 2.5
vertex 9.1896 3.9436 5
vertex 9.27755 3.7061 2.5
endloop
endfacet
facet normal 0.9377654299705044 0.34726934554065525 -1.3699062790141628e-16
outer loop
vertex 9.27755 3.7061 2.5
vertex 9.1896 3.9436 5
vertex 9.5414 2.9936 5
endloop
endfacet
facet normal 0.9377654299705043 0.34726934554065564 0
outer loop
vertex 9.27755 3.7061 2.5
vertex 9.5414 2.9936 5
vertex 9.5414 2.9936 2.5
endloop
endfacet
facet normal 0.9377654299705044 0.34726934554065525 -1.9726650417803944e-16
outer loop
vertex 9.45345 3.2311 -2.5
vertex 9.5414 2.9936 -5
vertex 9.1896 3.9436 -5
endloop
endfacet
facet normal 0.9377654299705043 0.34726934554065586 0
outer loop
vertex 9.45345 3.2311 -2.5
vertex 9.1896 3.9436 -5
vertex 9.1896 3.9436 -2.5
endloop
endfacet
facet normal 0.9377654299705052 0.3472693455406534 0
outer loop
vertex 9.5414 2.9936 -2.5
vertex 9.5414 2.9936 -5
vertex 9.45345 3.2311 -2.5
endloop
endfacet
facet normal 0.9680711132514741 0.2506757261644048 0
outer loop
vertex 9.5414 2.9936 2.5
vertex 9.5414 2.9936 5
vertex 9.60488 2.74845 2.5
endloop
endfacet
facet normal 0.9680759045239177 0.2506572222706736 0.000001936151809168616
outer loop
vertex 9.60488 2.74845 2.5
vertex 9.5414 2.9936 5
vertex 9.7953 2.013 5
endloop
endfacet
facet normal 0.968077501549093 0.2506510542456698 0
outer loop
vertex 9.60488 2.74845 2.5
vertex 9.7953 2.013 5
vertex 9.7953 2.013 2.5
endloop
endfacet
facet normal 0.9680759045239177 0.2506572222706736 0.000001936151808437007
outer loop
vertex 9.73182 2.25815 -2.5
vertex 9.7953 2.013 -5
vertex 9.5414 2.9936 -5
endloop
endfacet
facet normal 0.9680775015490924 0.25065105424567213 0
outer loop
vertex 9.73182 2.25815 -2.5
vertex 9.5414 2.9936 -5
vertex 9.5414 2.9936 -2.5
endloop
endfacet
facet normal 0.9680711132514759 0.25067572616439776 0
outer loop
vertex 9.7953 2.013 -2.5
vertex 9.7953 2.013 -5
vertex 9.73182 2.25815 -2.5
endloop
endfacet
facet normal 0.9884669137137012 0.1514369852226017 0
outer loop
vertex 9.7953 2.013 2.5
vertex 9.7953 2.013 5
vertex 9.83365 1.76268 2.5
endloop
endfacet
facet normal 0.9884673664942327 0.15143402978150067 3.0286805992006975e-7
outer loop
vertex 9.83365 1.76268 2.5
vertex 9.7953 2.013 5
vertex 9.9487 1.0117 5
endloop
endfacet
facet normal 0.9884675174152462 0.15143304465981008 0
outer loop
vertex 9.83365 1.76268 2.5
vertex 9.9487 1.0117 5
vertex 9.9487 1.0117 2.5
endloop
endfacet
facet normal 0.9884673664942327 0.15143402978150067 -3.0286805921041337e-7
outer loop
vertex 9.91035 1.26203 -2.5
vertex 9.9487 1.0117 -5
vertex 9.7953 2.013 -5
endloop
endfacet
facet normal 0.988467215570365 0.1514350149158696 0
outer loop
vertex 9.91035 1.26203 -2.5
vertex 9.7953 2.013 -5
vertex 9.7953 2.013 -2.5
endloop
endfacet
facet normal 0.9884678192483453 0.15143107445442117 0
outer loop
vertex 9.9487 1.0117 -2.5
vertex 9.9487 1.0117 -5
vertex 9.91035 1.26203 -2.5
endloop
endfacet
facet normal 0.9987158380813875 0.05066236044038997 0
outer loop
vertex 9.9487 1.0117 2.5
vertex 9.9487 1.0117 5
vertex 9.96153 0.75878 2.5
endloop
endfacet
facet normal 0.9987168874993406 0.050641668803712195 0.0000020987171123528703
outer loop
vertex 9.96153 0.75878 2.5
vertex 9.9487 1.0117 5
vertex 10 0 5
endloop
endfacet
facet normal 0.998717237204265 0.050634771758939746 0
outer loop
vertex 9.96153 0.75878 2.5
vertex 10 0 5
vertex 10 0 2.5
endloop
endfacet
facet normal 0.9987168874997446 0.05064166880373269 -0.0000018961504374933737
outer loop
vertex 9.98718 0.25292 -2.5
vertex 10 0 -5
vertex 9.9487 1.0117 -5
endloop
endfacet
facet normal 0.9987165715111265 0.05064790014463744 0
outer loop
vertex 9.98718 0.25292 -2.5
vertex 9.9487 1.0117 -5
vertex 9.9487 1.0117 -2.5
endloop
endfacet
facet normal 0.998717936453737 0.05062097792012223 0
outer loop
vertex 10 0 -2.5
vertex 10 0 -5
vertex 9.98718 0.25293 -2.5
endloop
endfacet
facet normal 0.998717936453737 -0.05062097792012223 0
outer loop
vertex 10 0 2.5
vertex 10 0 5
vertex 9.98718 -0.25293 2.5
endloop
endfacet
facet normal 0.9987168874997446 -0.05064166880373269 0.0000018961504374933737
outer loop
vertex 9.98718 -0.25292 2.5
vertex 10 0 5
vertex 9.9487 -1.0117 5
endloop
endfacet
facet normal 0.9987165715111265 -0.05064790014463744 0
outer loop
vertex 9.98718 -0.25292 2.5
vertex 9.9487 -1.0117 5
vertex 9.9487 -1.0117 2.5
endloop
endfacet
facet normal 0.9987168874993406 -0.050641668803712195 -0.0000020987171123528703
outer loop
vertex 9.96153 -0.75878 -2.5
vertex 9.9487 -1.0117 -5
vertex 10 0 -5
endloop
endfacet
facet normal 0.998717237204265 -0.050634771758939746 0
outer loop
vertex 9.96153 -0.75878 -2.5
vertex 10 0 -5
vertex 10 0 -2.5
endloop
endfacet
facet normal 0.998715939426758 -0.05066036256214973 0
outer loop
vertex 9.9487 -1.0117 -2.5
vertex 9.9487 -1.0117 -5
vertex 9.96153 -0.75877 -2.5
endloop
endfacet
facet normal 0 0 1
outer loop
vertex 2 9.78489 5
vertex 1.5143 9.8847 5
vertex 2 9.31892 5
endloop
endfacet
facet normal 0 0 1
outer loop
vertex 2 9.31892 5
vertex 1.5143 9.8847 5
vertex 0.5065 9.9872 5
endloop
endfacet
facet normal 0 0 1
outer loop
vertex 2 9.31892 5
vertex 0.5065 9.9872 5
vertex 2 8.41603 5
endloop
endfacet
facet normal 0 0 1
outer loop
vertex 2 8.41603 5
vertex 0.5065 9.9872 5
vertex -0.5065 9.9872 5
endloop
endfacet
facet normal 0 0 1
outer loop
vertex 2 8.41603 5
vertex -0.5065 9.9872 5
vertex 2 7.60459 5
endloop
endfacet
facet normal 0 0 1
outer loop
vertex 2 7.60459 5
vertex -0.5065 9.9872 5
vertex -1.5143 9.8847 5
endloop
endfacet
facet normal 0 0 1
outer loop
vertex 2 7.60459 5
vertex -1.5143 9.8847 5
vertex 2 6.86777 5
endloop
endfacet
facet normal 0 0 1
outer loop
vertex 2 6.86777 5
vertex -1.5143 9.8847 5
vertex -2.5065 9.6808 5
endloop
endfacet
facet normal 0 0 1
outer loop
vertex 2 6.86777 5
vertex -2.5065 9.6808 5
vertex 2 6.19249 5
endloop
endfacet
facet normal 0 0 1
outer loop
vertex 2 6.19249 5
vertex -2.5065 9.6808 5
vertex -3.4731 9.3775 5
endloop
endfacet
facet normal 0 0 1
outer loop
vertex 2 6.19249 5
vertex -3.4731 9.3775 5
vertex 2 5.56813 5
endloop
endfacet
facet normal 0 0 1
outer loop
vertex 2 5.56813 5
vertex -3.4731 9.3775 5
vertex -4.4039 8.978 5
endloop
endfacet
facet normal 0 0 1
outer loop
vertex 2 5.56813 5
vertex -4.4039 8.978 5
vertex 2 4.98643 5
endloop
endfacet
facet normal 0 0 1
outer loop
vertex 2 4.98643 5
vertex -4.4039 8.978 5
vertex -5.2896 8.4864 5
endloop
endfacet
facet normal 0 0 1
outer loop
vertex 2 4.98643 5
vertex -5.2896 8.4864 5
vertex 2 4.44035 5
endloop
endfacet
facet normal 0 0 1
outer loop
vertex 2 4.44035 5
vertex -5.2896 8.4864 5
vertex -6.1211 7.9078 5
endloop
endfacet
facet normal 0 0 1
outer loop
vertex 2 4.44035 5
vertex -6.1211 7.9078 5
vertex 2 3.9242 5
endloop
endfacet
facet normal 0 0 1
outer loop
vertex 2 3.9242 5
vertex -6.1211 7.9078 5
vertex -6.8897 7.2479 5
endloop
endfacet
facet normal 0 0 1
outer loop
vertex 2 3.9242 5
vertex -6.8897 7.2479 5
vertex 2 3.43305 5
endloop
endfacet
facet normal 0 0 1
outer loop
vertex 2 3.43305 5
vertex -6.8897 7.2479 5
vertex -7.5876 6.5137 5
endloop
endfacet
facet normal 0 0 1
outer loop
vertex 2 3.43305 5
vertex -7.5876 6.5137 5
vertex 2 2.96286 5
endloop
endfacet
facet normal 0 0 1
outer loop
vertex 2 2.96286 5
vertex -7.5876 6.5137 5
vertex -8.2076 5.7127 5
endloop
endfacet
facet normal 0 0 1
outer loop
vertex 2 2.96286 5
vertex -8.2076 5.7127 5
vertex 2 2.51003 5
endloop
endfacet
facet normal 0 0 1
outer loop
vertex 2 2.51003 5
vertex -8.2076 5.7127 5
vertex -8.7435 4.853 5
endloop
endfacet
facet normal 0 0 1
outer loop
vertex 2 2.51003 5
vertex -8.7435 4.853 5
vertex 2 2.07133 5
endloop
endfacet
facet normal 0 0 1
outer loop
vertex 2 2.07133 5
vertex -8.7435 4.853 5
vertex -9.1896 3.9436 5
endloop
endfacet
facet normal 0 0 1
outer loop
vertex 2 2.07133 5
vertex -9.1896 3.9436 5
vertex 2 1.64406 5
endloop
endfacet
facet normal 0 0 1
outer loop
vertex 2 1.64406 5
vertex -9.1896 3.9436 5
vertex -9.5414 2.9936 5
endloop
endfacet
facet normal 0 0 1
outer loop
vertex 2 1.64406 5
vertex -9.5414 2.9936 5
vertex 2 1.22554 5
endloop
endfacet
facet normal 0 0 1
outer loop
vertex 2 1.22554 5
vertex -9.5414 2.9936 5
vertex -9.7953 2.013 5
endloop
endfacet
facet normal 0 0 1
outer loop
vertex 2 1.22554 5
vertex -9.7953 2.013 5
vertex 2 0.81353 5
endloop
endfacet
facet normal 0 0 1
outer loop
vertex 2 0.81353 5
vertex -9.7953 2.013 5
vertex -9.9487 1.0117 5
endloop
endfacet
facet normal 0 0 1
outer loop
vertex 2 0.81353 5
vertex -9.9487 1.0117 5
vertex 2 0.40572 5
endloop
endfacet
facet normal 0 0 1
outer loop
vertex 2 0.40572 5
vertex -9.9487 1.0117 5
vertex -10 0 5
endloop
endfacet
facet normal 0 0 1
outer loop
vertex 2 0.40572 5
vertex -10 0 5
vertex 2 0 5
endloop
endfacet
facet normal 0 0 1
outer loop
vertex 2 0 5
vertex -10 0 5
vertex -9.9487 -1.0117 5
endloop
endfacet
facet normal 0 0 1
outer loop
vertex 2 0 5
vertex -9.9487 -1.0117 5
vertex 2 -0.40572 5
endloop
endfacet
facet normal 0 0 1
outer loop
vertex 2 -0.40572 5
vertex -9.9487 -1.0117 5
vertex -9.7953 -2.013 5
endloop
endfacet
facet normal 0 0 1
outer loop
vertex 2 -0.40572 5
vertex -9.7953 -2.013 5
vertex 2 -0.81353 5
endloop
endfacet
facet normal 0 0 1
outer loop
vertex 2 -0.81353 5
vertex -9.7953 -2.013 5
vertex -9.5414 -2.9936 5
endloop
endfacet
facet normal 0 0 1
outer loop
vertex 2 -0.81353 5
vertex -9.5414 -2.9936 5
vertex 2 -1.22554 5
endloop
endfacet
facet normal 0 0 1
outer loop
vertex 2 -1.22554 5
vertex -9.5414 -2.9936 5
vertex -9.1896 -3.9436 5
endloop
endfacet
facet normal 0 0 1
outer loop
vertex 2 -1.22554 5
vertex -9.1896 -3.9436 5
vertex 2 -1.64406 5
endloop
endfacet
facet normal 0 0 1
outer loop
vertex 2 -1.64406 5
vertex -9.1896 -3.9436 5
vertex -8.7435 -4.853 5
endloop
endfacet
facet normal 0 0 1
outer loop
vertex 2 -1.64406 5
vertex -8.7435 -4.853 5
vertex 2 -2.07133 5
endloop
endfacet
facet normal 0 0 1
outer loop
vertex 2 -2.07133 5
vertex -8.7435 -4.853 5
vertex -8.2076 -5.7127 5
endloop
endfacet
facet normal 0 0 1
outer loop
vertex 2 -2.07133 5
vertex -8.2076 -5.7127 5
vertex 2 -2.51003 5
endloop
endfacet
facet normal 0 0 1
outer loop
vertex 2 -2.51003 5
vertex -8.2076 -5.7127 5
vertex -7.5876 -6.5137 5
endloop
endfacet
facet normal 0 0 1
outer loop
vertex 2 -2.51003 5
vertex -7.5876 -6.5137 5
vertex 2 -2.96286 5
endloop
endfacet
facet normal 0 0 1
outer loop
vertex 2 -2.96286 5
vertex -7.5876 -6.5137 5
vertex -6.8897 -7.2479 5
endloop
endfacet
facet normal 0 0 1
outer loop
vertex 2 -2.96286 5
vertex -6.8897 -7.2479 5
vertex 2 -3.43305 5
endloop
endfacet
facet normal 0 0 1
outer loop
vertex 2 -3.43305 5
vertex -6.8897 -7.2479 5
vertex -6.1211 -7.9078 5
endloop
endfacet
facet normal 0 0 1
outer loop
vertex 2 -3.43305 5
vertex -6.1211 -7.9078 5
vertex 2 -3.9242 5
endloop
endfacet
facet normal 0 0 1
outer loop
vertex 2 -3.9242 5
vertex -6.1211 -7.9078 5
vertex -5.2896 -8.4864 5
endloop
endfacet
facet normal 0 0 1
outer loop
vertex 2 -3.9242 5
vertex -5.2896 -8.4864 5
vertex 2 -4.44035 5
endloop
endfacet
facet normal 0 0 1
outer loop
vertex 2 -4.44035 5
vertex -5.2896 -8.4864 5
vertex -4.4039 -8.978 5
endloop
endfacet
facet normal 0 0 1
outer loop
vertex 2 -4.44035 5
vertex -4.4039 -8.978 5
vertex 2 -4.98643 5
endloop
endfacet
facet normal 0 0 1
outer loop
vertex 2 -4.98643 5
vertex -4.4039 -8.978 5
vertex -3.4731 -9.3775 5
endloop
endfacet
facet normal 0 0 1
outer loop
vertex 2 -4.98643 5
vertex -3.4731 -9.3775 5
vertex 2 -5.56813 5
endloop
endfacet
facet normal 0 0 1
outer loop
vertex 2 -5.56813 5
vertex -3.4731 -9.3775 5
vertex -2.5065 -9.6808 5
endloop
endfacet
facet normal 0 0 1
outer loop
vertex 2 -5.56813 5
vertex -2.5065 -9.6808 5
vertex 2 -6.19249 5
endloop
endfacet
facet normal 0 0 1
outer loop
vertex 2 -6.19249 5
vertex -2.5065 -9.6808 5
vertex -1.5143 -9.8847 5
endloop
endfacet
facet normal 0 0 1
outer loop
vertex 2 -6.19249 5
vertex -1.5143 -9.8847 5
vertex 2 -6.86777 5
endloop
endfacet
facet normal 0 0 1
outer loop
vertex 2 -6.86777 5
vertex -1.5143 -9.8847 5
vertex -0.5065 -9.9872 5
endloop
endfacet
facet normal 0 0 1
outer loop
vertex 2 -6.86777 5
vertex -0.5065 -9.9872 5
vertex 2 -7.60459 5
endloop
endfacet
facet normal 0 0 1
outer loop
vertex 2 -7.60459 5
vertex -0.5065 -9.9872 5
vertex 0.5065 -9.9872 5
endloop
endfacet
facet normal 0 0 1
outer loop
vertex 2 -7.60459 5
vertex 0.5065 -9.9872 5
vertex 2 -8.41603 5
endloop
endfacet
facet normal 0 0 1
outer loop
vertex 2 -8.41603 5
vertex 0.5065 -9.9872 5
vertex 1.5143 -9.8847 5
endloop
endfacet
facet normal 0 0 1
outer loop
vertex 2 -8.41603 5
vertex 1.5143 -9.8847 5
vertex 2 -9.31892 5
endloop
endfacet
facet normal 0 0 1
outer loop
vertex 2 -9.31892 5
vertex 1.5143 -9.8847 5
vertex 2 -9.78489 5
endloop
endfacet
facet normal 0 0 1
outer loop
vertex 10 0 5
vertex 9.9487 1.0117 5
vertex 9.7953 2.013 5
endloop
endfacet
facet normal 0 0 1
outer loop
vertex 10 0 5
vertex 9.7953 2.013 5
vertex 9.5414 2.9936 5
endloop
endfacet
facet normal 0 0 1
outer loop
vertex 10 0 5
vertex 9.5414 2.9936 5
vertex 9.1896 3.9436 5
endloop
endfacet
facet normal 0 0 1
outer loop
vertex 10 0 5
vertex 9.1896 3.9436 5
vertex 8.7435 4.853 5
endloop
endfacet
facet normal 0 0 1
outer loop
vertex 10 0 5
vertex 8.7435 4.853 5
vertex 8.2076 5.7127 5
endloop
endfacet
facet normal 0 0 1
outer loop
vertex 10 0 5
vertex 8.2076 5.7127 5
vertex 7.5876 6.5137 5
endloop
endfacet
facet normal 0 0 1
outer loop
vertex 10 0 5
vertex 7.5876 6.5137 5
vertex 6.8897 7.2479 5
endloop
endfacet
facet normal 0 0 1
outer loop
vertex 10 0 5
vertex 6.8897 7.2479 5
vertex 6.1211 7.9078 5
endloop
endfacet
facet normal 0 0 1
outer loop
vertex 10 0 5
vertex 6.1211 7.9078 5
vertex 5.2896 8.4864 5
endloop
endfacet
facet normal 0 0 1
outer loop
vertex 10 0 5
vertex 5.2896 8.4864 5
vertex 4.4039 8.978 5
endloop
endfacet
facet normal 0 0 1
outer loop
vertex 10 0 5
vertex 4.4039 8.978 5
vertex 3.4731 9.3775 5
endloop
endfacet
facet normal 0 0 1
outer loop
vertex 10 0 5
vertex 3.4731 9.3775 5
vertex 2.5065 9.6808 5
endloop
endfacet
facet normal 0 0 1
outer loop
vertex 2.5065 9.6808 5
vertex 2 9.78489 5
vertex 2 9.31892 5
endloop
endfacet
facet normal 0 0 1
outer loop
vertex 2.5065 9.6808 5
vertex 2 9.31892 5
vertex 10 0 5
endloop
endfacet
facet normal 0 0 1
outer loop
vertex 2 9.31892 5
vertex 2 8.41603 5
vertex 10 0 5
endloop
endfacet
facet normal 0 0 1
outer loop
vertex 2 8.41603 5
vertex 2 7.60459 5
vertex 10 0 5
endloop
endfacet
facet normal 0 0 1
outer loop
vertex 2 7.60459 5
vertex 2 6.86777 5
vertex 10 0 5
endloop
endfacet
facet normal 0 0 1
outer loop
vertex 2 6.86777 5
vertex 2 6.19249 5
vertex 10 0 5
endloop
endfacet
facet normal 0 0 1
outer loop
vertex 2 6.19249 5
vertex 2 5.56813 5
vertex 10 0 5
endloop
endfacet
facet normal 0 0 1
outer loop
vertex 2 5.56813 5
vertex 2 4.98643 5
vertex 10 0 5
endloop
endfacet
facet normal 0 0 1
outer loop
vertex 2 4.98643 5
vertex 2 4.44035 5
vertex 10 0 5
endloop
endfacet
facet normal 0 0 1
outer loop
vertex 2 4.44035 5
vertex 2 3.9242 5
vertex 10 0 5
endloop
endfacet
facet normal 0 0 1
outer loop
vertex 2 3.9242 5
vertex 2 3.43305 5
vertex 10 0 5
endloop
endfacet
facet normal 0 0 1
outer loop
vertex 2 3.43305 5
vertex 2 2.96286 5
vertex 10 0 5
endloop
endfacet
facet normal 0 0 1
outer loop
vertex 2 2.96286 5
vertex 2 2.51003 5
vertex 10 0 5
endloop
endfacet
facet normal 0 0 1
outer loop
vertex 2 2.51003 5
vertex 2 2.07133 5
vertex 10 0 5
endloop
endfacet
facet normal 0 0 1
outer loop
vertex 2 2.07133 5
vertex 2 1.64406 5
vertex 10 0 5
endloop
endfacet
facet normal 0 0 1
outer loop
vertex 2 1.64406 5
vertex 2 1.22554 5
vertex 10 0 5
endloop
endfacet
facet normal 0 0 1
outer loop
vertex 2 1.22554 5
vertex 2 0.81353 5
vertex 10 0 5
endloop
endfacet
facet normal 0 0 1
outer loop
vertex 2 0.81353 5
vertex 2 0.40572 5
vertex 10 0 5
endloop
endfacet
facet normal 0 0 1
outer loop
vertex 2 0.40572 5
vertex 2 0 5
vertex 10 0 5
endloop
endfacet
facet normal 0 0 1
outer loop
vertex 2 0 5
vertex 2 -0.40572 5
vertex 10 0 5
endloop
endfacet
facet normal 0 0 1
outer loop
vertex 2 -0.40572 5
vertex 2 -0.81353 5
vertex 10 0 5
endloop
endfacet
facet normal 0 0 1
outer loop
vertex 2 -0.81353 5
vertex 2 -1.22554 5
vertex 10 0 5
endloop
endfacet
facet normal 0 0 1
outer loop
vertex 2 -1.22554 5
vertex 2 -1.64406 5
vertex 10 0 5
endloop
endfacet
facet normal 0 0 1
outer loop
vertex 2 -1.64406 5
vertex 2 -2.07133 5
vertex 10 0 5
endloop
endfacet
facet normal 0 0 1
outer loop
vertex 2 -2.07133 5
vertex 2 -2.51003 5
vertex 10 0 5
endloop
endfacet
facet normal 0 0 1
outer loop
vertex 2 -2.51003 5
vertex 2 -2.96286 5
vertex 10 0 5
endloop
endfacet
facet normal 0 0 1
outer loop
vertex 2 -2.96286 5
vertex 2 -3.43305 5
vertex 10 0 5
endloop
endfacet
facet normal 0 0 1
outer loop
vertex 2 -3.43305 5
vertex 2 -3.9242 5
vertex 10 0 5
endloop
endfacet
facet normal 0 0 1
outer loop
vertex 2 -3.9242 5
vertex 2 -4.44035 5
vertex 10 0 5
endloop
endfacet
facet normal 0 0 1
outer loop
vertex 2 -4.44035 5
vertex 2 -4.98643 5
vertex 10 0 5
endloop
endfacet
facet normal 0 0 1
outer loop
vertex 2 -4.98643 5
vertex 2 -5.56813 5
vertex 10 0 5
endloop
endfacet
facet normal 0 0 1
outer loop
vertex 2 -5.56813 5
vertex 2 -6.19249 5
vertex 10 0 5
endloop
endfacet
facet normal 0 0 1
outer loop
vertex 2 -6.19249 5
vertex 2 -6.86777 5
vertex 10 0 5
endloop
endfacet
facet normal 0 0 1
outer loop
vertex 2 -6.86777 5
vertex 2 -7.60459 5
vertex 10 0 5
endloop
endfacet
facet normal 0 0 1
outer loop
vertex 2 -7.60459 5
vertex 2 -8.41603 5
vertex 10 0 5
endloop
endfacet
facet normal 0 0 1
outer loop
vertex 2 -8.41603 5
vertex 2 -9.31892 5
vertex 10 0 5
endloop
endfacet
facet normal 0 0 1
outer loop
vertex 2 -9.31892 5
vertex 2 -9.78489 5
vertex 2.5065 -9.6808 5
endloop
endfacet
facet normal 0 0 1
outer loop
vertex 2 -9.31892 5
vertex 2.5065 -9.6808 5
vertex 10 0 5
endloop
endfacet
facet normal 0 0 1
outer loop
vertex 10 0 5
vertex 2.5065 -9.6808 5
vertex 3.4731 -9.3775 5
endloop
endfacet
facet normal 0 0 1
outer loop
vertex 10 0 5
vertex 3.4731 -9.3775 5
vertex 4.4039 -8.978 5
endloop
endfacet
facet normal 0 0 1
outer loop
vertex 10 0 5
vertex 4.4039 -8.978 5
vertex 5.2896 -8.4864 5
endloop
endfacet
facet normal 0 0 1
outer loop
vertex 10 0 5
vertex 5.2896 -8.4864 5
vertex 6.1211 -7.9078 5
endloop
endfacet
facet normal 0 0 1
outer loop
vertex 10 0 5
vertex 6.1211 -7.9078 5
vertex 6.8897 -7.2479 5
endloop
endfacet
facet normal 0 0 1
outer loop
vertex 10 0 5
vertex 6.8897 -7.2479 5
vertex 7.5876 -6.5137 5
endloop
endfacet
facet normal 0 0 1
outer loop
vertex 10 0 5
vertex 7.5876 -6.5137 5
vertex 8.2076 -5.7127 5
endloop
endfacet
facet normal 0 0 1
outer loop
vertex 10 0 5
vertex 8.2076 -5.7127 5
vertex 8.7435 -4.853 5
endloop
endfacet
facet normal 0 0 1
outer loop
vertex 10 0 5
vertex 8.7435 -4.853 5
vertex 9.1896 -3.9436 5
endloop
endfacet
facet normal 0 0 1
outer loop
vertex 10 0 5
vertex 9.1896 -3.9436 5
vertex 9.5414 -2.9936 5
endloop
endfacet
facet normal 0 0 1
outer loop
vertex 10 0 5
vertex 9.5414 -2.9936 5
vertex 9.7953 -2.013 5
endloop
endfacet
facet normal 0 0 1
outer loop
vertex 10 0 5
vertex 9.7953 -2.013 5
vertex 9.9487 -1.0117 5
endloop
endfacet
facet normal 0 0 -1
outer loop
vertex 2 -9.78489 -5
vertex 1.5143 -9.8847 -5
vertex 2 -9.37374 -5
endloop
endfacet
facet normal 0 0 -1
outer loop
vertex 2 -9.37374 -5
vertex 1.5143 -9.8847 -5
vertex 0.5065 -9.9872 -5
endloop
endfacet
facet normal 0 0 -1
outer loop
vertex 2 -9.37374 -5
vertex 0.5065 -9.9872 -5
vertex 2 -8.56752 -5
endloop
endfacet
facet normal 0 0 -1
outer loop
vertex 2 -8.56752 -5
vertex 0.5065 -9.9872 -5
vertex -0.5065 -9.9872 -5
endloop
endfacet
facet normal 0 0 -1
outer loop
vertex 2 -8.56752 -5
vertex -0.5065 -9.9872 -5
vertex 2 -7.83544 -5
endloop
endfacet
facet normal 0 0 -1
outer loop
vertex 2 -7.83544 -5
vertex -0.5065 -9.9872 -5
vertex -1.5143 -9.8847 -5
endloop
endfacet
facet normal 0 0 -1
outer loop
vertex 2 -7.83544 -5
vertex -1.5143 -9.8847 -5
vertex 2 -7.16444 -5
endloop
endfacet
facet normal 0 0 -1
outer loop
vertex 2 -7.16444 -5
vertex -1.5143 -9.8847 -5
vertex -2.5065 -9.6808 -5
endloop
endfacet
facet normal 0 0 -1
outer loop
vertex 2 -7.16444 -5
vertex -2.5065 -9.6808 -5
vertex 2 -6.54417 -5
endloop
endfacet
facet normal 0 0 -1
outer loop
vertex 2 -6.54417 -5
vertex -2.5065 -9.6808 -5
vertex -3.4731 -9.3775 -5
endloop
endfacet
facet normal 0 0 -1
outer loop
vertex 2 -6.54417 -5
vertex -3.4731 -9.3775 -5
vertex 2 -5.96612 -5
endloop
endfacet
facet normal 0 0 -1
outer loop
vertex 2 -5.96612 -5
vertex -3.4731 -9.3775 -5
vertex -4.4039 -8.978 -5
endloop
endfacet
facet normal 0 0 -1
outer loop
vertex 2 -5.96612 -5
vertex -4.4039 -8.978 -5
vertex 2 -5.42356 -5
endloop
endfacet
facet normal 0 0 -1
outer loop
vertex 2 -5.42356 -5
vertex -4.4039 -8.978 -5
vertex -5.2896 -8.4864 -5
endloop
endfacet
facet normal 0 0 -1
outer loop
vertex 2 -5.42356 -5
vertex -5.2896 -8.4864 -5
vertex 2 -4.9107 -5
endloop
endfacet
facet normal 0 0 -1
outer loop
vertex 2 -4.9107 -5
vertex -5.2896 -8.4864 -5
vertex -6.1211 -7.9078 -5
endloop
endfacet
facet normal 0 0 -1
outer loop
vertex 2 -4.9107 -5
vertex -6.1211 -7.9078 -5
vertex 2 -4.42276 -5
endloop
endfacet
facet normal 0 0 -1
outer loop
vertex 2 -4.42276 -5
vertex -6.1211 -7.9078 -5
vertex -6.8897 -7.2479 -5
endloop
endfacet
facet normal 0 0 -1
outer loop
vertex 2 -4.42276 -5
vertex -6.8897 -7.2479 -5
vertex 2 -3.95555 -5
endloop
endfacet
facet normal 0 0 -1
outer loop
vertex 2 -3.95555 -5
vertex -6.8897 -7.2479 -5
vertex -7.5876 -6.5137 -5
endloop
endfacet
facet normal 0 0 -1
outer loop
vertex 2 -3.95555 -5
vertex -7.5876 -6.5137 -5
vertex 2 -3.5056 -5
endloop
endfacet
facet normal 0 0 -1
outer loop
vertex 2 -3.5056 -5
vertex -7.5876 -6.5137 -5
vertex -8.2076 -5.7127 -5
endloop
endfacet
facet normal 0 0 -1
outer loop
vertex 2 -3.5056 -5
vertex -8.2076 -5.7127 -5
vertex 2 -3.06976 -5
endloop
endfacet
facet normal 0 0 -1
outer loop
vertex 2 -3.06976 -5
vertex -8.2076 -5.7127 -5
vertex -8.7435 -4.853 -5
endloop
endfacet
facet normal 0 0 -1
outer loop
vertex 2 -3.06976 -5
vertex -8.7435 -4.853 -5
vertex 2 -2.64518 -5
endloop
endfacet
facet normal 0 0 -1
outer loop
vertex 2 -2.64518 -5
vertex -8.7435 -4.853 -5
vertex -9.1896 -3.9436 -5
endloop
endfacet
facet normal 0 0 -1
outer loop
vertex 2 -2.64518 -5
vertex -9.1896 -3.9436 -5
vertex 2 -2.2294 -5
endloop
endfacet
facet normal 0 0 -1
outer loop
vertex 2 -2.2294 -5
vertex -9.1896 -3.9436 -5
vertex -9.5414 -2.9936 -5
endloop
endfacet
facet normal 0 0 -1
outer loop
vertex 2 -2.2294 -5
vertex -9.5414 -2.9936 -5
vertex 2 -1.81998 -5
endloop
endfacet
facet normal 0 0 -1
outer loop
vertex 2 -1.81998 -5
vertex -9.5414 -2.9936 -5
vertex -9.7953 -2.013 -5
endloop
endfacet
facet normal 0 0 -1
outer loop
vertex 2 -1.81998 -5
vertex -9.7953 -2.013 -5
vertex 2 -1.41481 -5
endloop
endfacet
facet normal 0 0 -1
outer loop
vertex 2 -1.41481 -5
vertex -9.7953 -2.013 -5
vertex -9.9487 -1.0117 -5
endloop
endfacet
facet normal 0 0 -1
outer loop
vertex 2 -1.41481 -5
vertex -9.9487 -1.0117 -5
vertex 2 -1.0117 -5
endloop
endfacet
facet normal 0 0 -1
outer loop
vertex 2 -1.0117 -5
vertex -9.9487 -1.0117 -5
vertex -10 0 -5
endloop
endfacet
facet normal 0 0 -1
outer loop
vertex 2 -1.0117 -5
vertex -10 0 -5
vertex 2 -0.60858 -5
endloop
endfacet
facet normal 0 0 -1
outer loop
vertex 2 -0.60858 -5
vertex -10 0 -5
vertex -9.9487 1.0117 -5
endloop
endfacet
facet normal 0 0 -1
outer loop
vertex 2 -0.60858 -5
vertex -9.9487 1.0117 -5
vertex 2 -0.20338 -5
endloop
endfacet
facet normal 0 0 -1
outer loop
vertex 2 -0.20338 -5
vertex -9.9487 1.0117 -5
vertex -9.7953 2.013 -5
endloop
endfacet
facet normal 0 0 -1
outer loop
vertex 2 -0.20338 -5
vertex -9.7953 2.013 -5
vertex 2 0.20601 -5
endloop
endfacet
facet normal 0 0 -1
outer loop
vertex 2 0.20601 -5
vertex -9.7953 2.013 -5
vertex -9.5414 2.9936 -5
endloop
endfacet
facet normal 0 0 -1
outer loop
vertex 2 0.20601 -5
vertex -9.5414 2.9936 -5
vertex 2 0.62179 -5
endloop
endfacet
facet normal 0 0 -1
outer loop
vertex 2 0.62179 -5
vertex -9.5414 2.9936 -5
vertex -9.1896 3.9436 -5
endloop
endfacet
facet normal 0 0 -1
outer loop
vertex 2 0.62179 -5
vertex -9.1896 3.9436 -5
vertex 2 1.04638 -5
endloop
endfacet
facet normal 0 0 -1
outer loop
vertex 2 1.04638 -5
vertex -9.1896 3.9436 -5
vertex -8.7435 4.853 -5
endloop
endfacet
facet normal 0 0 -1
outer loop
vertex 2 1.04638 -5
vertex -8.7435 4.853 -5
vertex 2 1.48221 -5
endloop
endfacet
facet normal 0 0 -1
outer loop
vertex 2 1.48221 -5
vertex -8.7435 4.853 -5
vertex -8.2076 5.7127 -5
endloop
endfacet
facet normal 0 0 -1
outer loop
vertex 2 1.48221 -5
vertex -8.2076 5.7127 -5
vertex 2 1.93219 -5
endloop
endfacet
facet normal 0 0 -1
outer loop
vertex 2 1.93219 -5
vertex -8.2076 5.7127 -5
vertex -7.5876 6.5137 -5
endloop
endfacet
facet normal 0 0 -1
outer loop
vertex 2 1.93219 -5
vertex -7.5876 6.5137 -5
vertex 2 2.39935 -5
endloop
endfacet
facet normal 0 0 -1
outer loop
vertex 2 2.39935 -5
vertex -7.5876 6.5137 -5
vertex -6.8897 7.2479 -5
endloop
endfacet
facet normal 0 0 -1
outer loop
vertex 2 2.39935 -5
vertex -6.8897 7.2479 -5
vertex 2 2.88731 -5
endloop
endfacet
facet normal 0 0 -1
outer loop
vertex 2 2.88731 -5
vertex -6.8897 7.2479 -5
vertex -6.1211 7.9078 -5
endloop
endfacet
facet normal 0 0 -1
outer loop
vertex 2 2.88731 -5
vertex -6.1211 7.9078 -5
vertex 2 3.4002 -5
endloop
endfacet
facet normal 0 0 -1
outer loop
vertex 2 3.4002 -5
vertex -6.1211 7.9078 -5
vertex -5.2896 8.4864 -5
endloop
endfacet
facet normal 0 0 -1
outer loop
vertex 2 3.4002 -5
vertex -5.2896 8.4864 -5
vertex 2 3.94276 -5
endloop
endfacet
facet normal 0 0 -1
outer loop
vertex 2 3.94276 -5
vertex -5.2896 8.4864 -5
vertex -4.4039 8.978 -5
endloop
endfacet
facet normal 0 0 -1
outer loop
vertex 2 3.94276 -5
vertex -4.4039 8.978 -5
vertex 2 4.52076 -5
endloop
endfacet
facet normal 0 0 -1
outer loop
vertex 2 4.52076 -5
vertex -4.4039 8.978 -5
vertex -3.4731 9.3775 -5
endloop
endfacet
facet normal 0 0 -1
outer loop
vertex 2 4.52076 -5
vertex -3.4731 9.3775 -5
vertex 2 5.14102 -5
endloop
endfacet
facet normal 0 0 -1
outer loop
vertex 2 5.14102 -5
vertex -3.4731 9.3775 -5
vertex -2.5065 9.6808 -5
endloop
endfacet
facet normal 0 0 -1
outer loop
vertex 2 5.14102 -5
vertex -2.5065 9.6808 -5
vertex 2 5.81207 -5
endloop
endfacet
facet normal 0 0 -1
outer loop
vertex 2 5.81207 -5
vertex -2.5065 9.6808 -5
vertex -1.5143 9.8847 -5
endloop
endfacet
facet normal 0 0 -1
outer loop
vertex 2 5.81207 -5
vertex -1.5143 9.8847 -5
vertex 2 6.54411 -5
endloop
endfacet
facet normal 0 0 -1
outer loop
vertex 2 6.54411 -5
vertex -1.5143 9.8847 -5
vertex -0.5065 9.9872 -5
endloop
endfacet
facet normal 0 0 -1
outer loop
vertex 2 6.54411 -5
vertex -0.5065 9.9872 -5
vertex 2 7.35035 -5
endloop
endfacet
facet normal 0 0 -1
outer loop
vertex 2 7.35035 -5
vertex -0.5065 9.9872 -5
vertex 0.5065 9.9872 -5
endloop
endfacet
facet normal 0 0 -1
outer loop
vertex 2 7.35035 -5
vertex 0.5065 9.9872 -5
vertex 2 8.24747 -5
endloop
endfacet
facet normal 0 0 -1
outer loop
vertex 2 8.24747 -5
vertex 0.5065 9.9872 -5
vertex 1.5143 9.8847 -5
endloop
endfacet
facet normal 0 0 -1
outer loop
vertex 2 8.24747 -5
vertex 1.5143 9.8847 -5
vertex 2 9.25722 -5
endloop
endfacet
facet normal 0 0 -1
outer loop
vertex 2 9.25722 -5
vertex 1.5143 9.8847 -5
vertex 2 9.78489 -5
endloop
endfacet
facet normal 0 0 -1
outer loop
vertex 9.9487 -1.0117 -5
vertex 9.7953 -2.013 -5
vertex 9.5414 -2.9936 -5
endloop
endfacet
facet normal 0 0 -1
outer loop
vertex 9.9487 -1.0117 -5
vertex 9.5414 -2.9936 -5
vertex 9.1896 -3.9436 -5
endloop
endfacet
facet normal 0 0 -1
outer loop
vertex 9.9487 -1.0117 -5
vertex 9.1896 -3.9436 -5
vertex 8.7435 -4.853 -5
endloop
endfacet
facet normal 0 0 -1
outer loop
vertex 9.9487 -1.0117 -5
vertex 8.7435 -4.853 -5
vertex 8.2076 -5.7127 -5
endloop
endfacet
facet normal 0 0 -1
outer loop
vertex 9.9487 -1.0117 -5
vertex 8.2076 -5.7127 -5
vertex 7.5876 -6.5137 -5
endloop
endfacet
facet normal 0 0 -1
outer loop
vertex 9.9487 -1.0117 -5
vertex 7.5876 -6.5137 -5
vertex 6.8897 -7.2479 -5
endloop
endfacet
facet normal 0 0 -1
outer loop
vertex 9.9487 -1.0117 -5
vertex 6.8897 -7.2479 -5
vertex 6.1211 -7.9078 -5
endloop
endfacet
facet normal 0 0 -1
outer loop
vertex 9.9487 -1.0117 -5
vertex 6.1211 -7.9078 -5
vertex 5.2896 -8.4864 -5
endloop
endfacet
facet normal 0 0 -1
outer loop
vertex 9.9487 -1.0117 -5
vertex 5.2896 -8.4864 -5
vertex 4.4039 -8.978 -5
endloop
endfacet
facet normal 0 0 -1
outer loop
vertex 9.9487 -1.0117 -5
vertex 4.4039 -8.978 -5
vertex 3.4731 -9.3775 -5
endloop
endfacet
facet normal 0 0 -1
outer loop
vertex 9.9487 -1.0117 -5
vertex 3.4731 -9.3775 -5
vertex 2.5065 -9.6808 -5
endloop
endfacet
facet normal 0 0 -1
outer loop
vertex 2.5065 -9.6808 -5
vertex 2 -9.78489 -5
vertex 2 -9.37374 -5
endloop
endfacet
facet normal 0 0 -1
outer loop
vertex 2.5065 -9.6808 -5
vertex 2 -9.37374 -5
vertex 9.9487 -1.0117 -5
endloop
endfacet
facet normal 0 0 -1
outer loop
vertex 2 -9.37374 -5
vertex 2 -8.56752 -5
vertex 9.9487 -1.0117 -5
endloop
endfacet
facet normal 0 0 -1
outer loop
vertex 2 -8.56752 -5
vertex 2 -7.83544 -5
vertex 9.9487 -1.0117 -5
endloop
endfacet
facet normal 0 0 -1
outer loop
vertex 2 -7.83544 -5
vertex 2 -7.16444 -5
vertex 9.9487 -1.0117 -5
endloop
endfacet
facet normal 0 0 -1
outer loop
vertex 2 -7.16444 -5
vertex 2 -6.54417 -5
vertex 9.9487 -1.0117 -5
endloop
endfacet
facet normal 0 0 -1
outer loop
vertex 2 -6.54417 -5
vertex 2 -5.96612 -5
vertex 9.9487 -1.0117 -5
endloop
endfacet
facet normal 0 0 -1
outer loop
vertex 2 -5.96612 -5
vertex 2 -5.42356 -5
vertex 9.9487 -1.0117 -5
endloop
endfacet
facet normal 0 0 -1
outer loop
vertex 2 -5.42356 -5
vertex 2 -4.9107 -5
vertex 9.9487 -1.0117 -5
endloop
endfacet
facet normal 0 0 -1
outer loop
vertex 2 -4.9107 -5
vertex 2 -4.42276 -5
vertex 9.9487 -1.0117 -5
endloop
endfacet
facet normal 0 0 -1
outer loop
vertex 2 -4.42276 -5
vertex 2 -3.95555 -5
vertex 9.9487 -1.0117 -5
endloop
endfacet
facet normal 0 0 -1
outer loop
vertex 2 -3.95555 -5
vertex 2 -3.5056 -5
vertex 9.9487 -1.0117 -5
endloop
endfacet
facet normal 0 0 -1
outer loop
vertex 2 -3.5056 -5
vertex 2 -3.06976 -5
vertex 9.9487 -1.0117 -5
endloop
endfacet
facet normal 0 0 -1
outer loop
vertex 2 -3.06976 -5
vertex 2 -2.64518 -5
vertex 9.9487 -1.0117 -5
endloop
endfacet
facet normal 0 0 -1
outer loop
vertex 2 -2.64518 -5
vertex 2 -2.2294 -5
vertex 9.9487 -1.0117 -5
endloop
endfacet
facet normal 0 0 -1
outer loop
vertex 2 -2.2294 -5
vertex 2 -1.81998 -5
vertex 9.9487 -1.0117 -5
endloop
endfacet
facet normal 0 0 -1
outer loop
vertex 2 -1.81998 -5
vertex 2 -1.41481 -5
vertex 9.9487 -1.0117 -5
endloop
endfacet
facet normal 0 0 -1
outer loop
vertex 2 -1.41481 -5
vertex 2 -1.0117 -5
vertex 9.9487 -1.0117 -5
endloop
endfacet
facet normal 0 0 -1
outer loop
vertex 2 -1.0117 -5
vertex 2 -0.60858 -5
vertex 9.9487 -1.0117 -5
endloop
endfacet
facet normal 0 0 -1
outer loop
vertex 2 -0.60858 -5
vertex 2 -0.20338 -5
vertex 9.9487 -1.0117 -5
endloop
endfacet
facet normal 0 0 -1
outer loop
vertex 2 -0.20338 -5
vertex 2 0.20601 -5
vertex 9.9487 -1.0117 -5
endloop
endfacet
facet normal 0 0 -1
outer loop
vertex 2 0.20601 -5
vertex 2 0.62179 -5
vertex 9.9487 -1.0117 -5
endloop
endfacet
facet normal 0 0 -1
outer loop
vertex 2 0.62179 -5
vertex 2 1.04638 -5
vertex 9.9487 -1.0117 -5
endloop
endfacet
facet normal 0 0 -1
outer loop
vertex 2 1.04638 -5
vertex 2 1.48221 -5
vertex 9.9487 -1.0117 -5
endloop
endfacet
facet normal 0 0 -1
outer loop
vertex 2 1.48221 -5
vertex 2 1.93219 -5
vertex 9.9487 -1.0117 -5
endloop
endfacet
facet normal 0 0 -1
outer loop
vertex 2 1.93219 -5
vertex 2 2.39935 -5
vertex 9.9487 -1.0117 -5
endloop
endfacet
facet normal 0 0 -1
outer loop
vertex 2 2.39935 -5
vertex 2 2.88731 -5
vertex 9.9487 -1.0117 -5
endloop
endfacet
facet normal 0 0 -1
outer loop
vertex 2 2.88731 -5
vertex 2 3.4002 -5
vertex 9.9487 -1.0117 -5
endloop
endfacet
facet normal 0 0 -1
outer loop
vertex 2 3.4002 -5
vertex 2 3.94276 -5
vertex 9.9487 -1.0117 -5
endloop
endfacet
facet normal 0 0 -1
outer loop
vertex 2 3.94276 -5
vertex 2 4.52076 -5
vertex 9.9487 -1.0117 -5
endloop
endfacet
facet normal 0 0 -1
outer loop
vertex 2 4.52076 -5
vertex 2 5.14102 -5
vertex 9.9487 -1.0117 -5
endloop
endfacet
facet normal 0 0 -1
outer loop
vertex 2 5.14102 -5
vertex 2 5.81207 -5
vertex 9.9487 -1.0117 -5
endloop
endfacet
facet normal 0 0 -1
outer loop
vertex 2 5.81207 -5
vertex 2 6.54411 -5
vertex 9.9487 -1.0117 -5
endloop
endfacet
facet normal 0 0 -1
outer loop
vertex 2 6.54411 -5
vertex 2 7.35035 -5
vertex 9.9487 -1.0117 -5
endloop
endfacet
facet normal 0 0 -1
outer loop
vertex 2 7.35035 -5
vertex 2 8.24747 -5
vertex 9.9487 -1.0117 -5
endloop
endfacet
facet normal 0 0 -1
outer loop
vertex 2 8.24747 -5
vertex 2 9.25722 -5
vertex 9.9487 -1.0117 -5
endloop
endfacet
facet normal 0 0 -1
outer loop
vertex 2 9.25722 -5
vertex 2 9.78489 -5
vertex 2.5065 9.6808 -5
endloop
endfacet
facet normal 0 0 -1
outer loop
vertex 2 9.25722 -5
vertex 2.5065 9.6808 -5
vertex 9.9487 -1.0117 -5
endloop
endfacet
facet normal 0 0 -1
outer loop
vertex 9.9487 -1.0117 -5
vertex 2.5065 9.6808 -5
vertex 3.4731 9.3775 -5
endloop
endfacet
facet normal 0 0 -1
outer loop
vertex 9.9487 -1.0117 -5
vertex 3.4731 9.3775 -5
vertex 4.4039 8.978 -5
endloop
endfacet
facet normal 0 0 -1
outer loop
vertex 9.9487 -1.0117 -5
vertex 4.4039 8.978 -5
vertex 5.2896 8.4864 -5
endloop
endfacet
facet normal 0 0 -1
outer loop
vertex 9.9487 -1.0117 -5
vertex 5.2896 8.4864 -5
vertex 6.1211 7.9078 -5
endloop
endfacet
facet normal 0 0 -1
outer loop
vertex 9.9487 -1.0117 -5
vertex 6.1211 7.9078 -5
vertex 6.8897 7.2479 -5
endloop
endfacet
facet normal 0 0 -1
outer loop
vertex 9.9487 -1.0117 -5
vertex 6.8897 7.2479 -5
vertex 7.5876 6.5137 -5
endloop
endfacet
facet normal 0 0 -1
outer loop
vertex 9.9487 -1.0117 -5
vertex 7.5876 6.5137 -5
vertex 8.2076 5.7127 -5
endloop
endfacet
facet normal 0 0 -1
outer loop
vertex 9.9487 -1.0117 -5
vertex 8.2076 5.7127 -5
vertex 8.7435 4.853 -5
endloop
endfacet
facet normal 0 0 -1
outer loop
vertex 9.9487 -1.0117 -5
vertex 8.7435 4.853 -5
vertex 9.1896 3.9436 -5
endloop
endfacet
facet normal 0 0 -1
outer loop
vertex 9.9487 -1.0117 -5
vertex 9.1896 3.9436 -5
vertex 9.5414 2.9936 -5
endloop
endfacet
facet normal 0 0 -1
outer loop
vertex 9.9487 -1.0117 -5
vertex 9.5414 2.9936 -5
vertex 9.7953 2.013 -5
endloop
endfacet
facet normal 0 0 -1
outer loop
vertex 9.9487 -1.0117 -5
vertex 9.7953 2.013 -5
vertex 9.9487 1.0117 -5
endloop
endfacet
facet normal 0 0 -1
outer loop
vertex 9.9487 -1.0117 -5
vertex 9.9487 1.0117 -5
vertex 10 0 -5
endloop
endfacet
facet normal 1 0 0
outer loop
vertex 2 9.78489 -2.44622
vertex 2 -9.78489 2.44622
vertex 2 -9.78489 -2.5
endloop
endfacet
facet normal 1 0 0
outer loop
vertex 2 9.78489 -2.44622
vertex 2 -9.78489 -2.5
vertex 2 9.78489 -2.5
endloop
endfacet
facet normal 1 0 0
outer loop
vertex 2 9.78489 2.5
vertex 2 -9.78489 2.5
vertex 2 -9.78489 2.44622
endloop
endfacet
facet normal 1 0 0
outer loop
vertex 2 9.78489 2.5
vertex 2 -9.78489 2.44622
vertex 2 9.78489 -2.44622
endloop
endfacet
facet normal 0 0 -1
outer loop
vertex 8.7435 4.853 2.5
vertex 9.08174 4.16348 2.5
vertex 2.11987 -9.76025 2.5
endloop
endfacet
facet normal 0 0 -1
outer loop
vertex 8.7435 4.853 2.5
vertex 2.11987 -9.76025 2.5
vertex 2 -9.78489 2.5
endloop
endfacet
facet normal 0 0 -1
outer loop
vertex 8.7435 4.853 2.5
vertex 2 -9.78489 2.5
vertex 2 9.78489 2.5
endloop
endfacet
facet normal 0 0 -1
outer loop
vertex 8.7435 4.853 2.5
vertex 2 9.78489 2.5
vertex 2.5065 9.6808 2.5
endloop
endfacet
facet normal 0 0 -1
outer loop
vertex 8.7435 4.853 2.5
vertex 2.5065 9.6808 2.5
vertex 3.4731 9.3775 2.5
endloop
endfacet
facet normal 0 0 -1
outer loop
vertex 8.7435 4.853 2.5
vertex 3.4731 9.3775 2.5
vertex 4.4039 8.978 2.5
endloop
endfacet
facet normal 0 0 -1
outer loop
vertex 8.7435 4.853 2.5
vertex 4.4039 8.978 2.5
vertex 5.2896 8.4864 2.5
endloop
endfacet
facet normal 0 0 -1
outer loop
vertex 8.7435 4.853 2.5
vertex 5.2896 8.4864 2.5
vertex 6.1211 7.9078 2.5
endloop
endfacet
facet normal 0 0 -1
outer loop
vertex 8.7435 4.853 2.5
vertex 6.1211 7.9078 2.5
vertex 6.8897 7.2479 2.5
endloop
endfacet
facet normal 0 0 -1
outer loop
vertex 8.7435 4.853 2.5
vertex 6.8897 7.2479 2.5
vertex 7.5876 6.5137 2.5
endloop
endfacet
facet normal 0 0 -1
outer loop
vertex 8.7435 4.853 2.5
vertex 7.5876 6.5137 2.5
vertex 8.2076 5.7127 2.5
endloop
endfacet
facet normal 0 0 -1
outer loop
vertex 9.9487 -1.0117 2.5
vertex 9.7953 -2.013 2.5
vertex 9.5414 -2.9936 2.5
endloop
endfacet
facet normal 0 0 -1
outer loop
vertex 9.9487 -1.0117 2.5
vertex 9.5414 -2.9936 2.5
vertex 9.1896 -3.9436 2.5
endloop
endfacet
facet normal 0 0 -1
outer loop
vertex 9.9487 -1.0117 2.5
vertex 9.1896 -3.9436 2.5
vertex 8.7435 -4.853 2.5
endloop
endfacet
facet normal 0 0 -1
outer loop
vertex 9.9487 -1.0117 2.5
vertex 8.7435 -4.853 2.5
vertex 8.2076 -5.7127 2.5
endloop
endfacet
facet normal 0 0 -1
outer loop
vertex 9.9487 -1.0117 2.5
vertex 8.2076 -5.7127 2.5
vertex 7.5876 -6.5137 2.5
endloop
endfacet
facet normal 0 0 -1
outer loop
vertex 9.9487 -1.0117 2.5
vertex 7.5876 -6.5137 2.5
vertex 6.8897 -7.2479 2.5
endloop
endfacet
facet normal 0 0 -1
outer loop
vertex 9.9487 -1.0117 2.5
vertex 6.8897 -7.2479 2.5
vertex 6.1211 -7.9078 2.5
endloop
endfacet
facet normal 0 0 -1
outer loop
vertex 9.9487 -1.0117 2.5
vertex 6.1211 -7.9078 2.5
vertex 5.2896 -8.4864 2.5
endloop
endfacet
facet normal 0 0 -1
outer loop
vertex 9.9487 -1.0117 2.5
vertex 5.2896 -8.4864 2.5
vertex 4.4039 -8.978 2.5
endloop
endfacet
facet normal 0 0 -1
outer loop
vertex 9.9487 -1.0117 2.5
vertex 4.4039 -8.978 2.5
vertex 3.4731 -9.3775 2.5
endloop
endfacet
facet normal 0 0 -1
outer loop
vertex 9.9487 -1.0117 2.5
vertex 3.4731 -9.3775 2.5
vertex 2.5065 -9.6808 2.5
endloop
endfacet
facet normal 0 0 -1
outer loop
vertex 9.9487 -1.0117 2.5
vertex 2.5065 -9.6808 2.5
vertex 2.11987 -9.76025 2.5
endloop
endfacet
facet normal 0 0 -1
outer loop
vertex 9.9487 -1.0117 2.5
vertex 2.11987 -9.76025 2.5
vertex 9.08174 4.16348 2.5
endloop
endfacet
facet normal 0 0 -1
outer loop
vertex 9.9487 -1.0117 2.5
vertex 9.08174 4.16348 2.5
vertex 9.1896 3.9436 2.5
endloop
endfacet
facet normal 0 0 -1
outer loop
vertex 9.9487 -1.0117 2.5
vertex 9.1896 3.9436 2.5
vertex 9.5414 2.9936 2.5
endloop
endfacet
facet normal 0 0 -1
outer loop
vertex 9.9487 -1.0117 2.5
vertex 9.5414 2.9936 2.5
vertex 9.7953 2.013 2.5
endloop
endfacet
facet normal 0 0 -1
outer loop
vertex 9.9487 -1.0117 2.5
vertex 9.7953 2.013 2.5
vertex 9.9487 1.0117 2.5
endloop
endfacet
facet normal 0 0 -1
outer loop
vertex 9.9487 -1.0117 2.5
vertex 9.9487 1.0117 2.5
vertex 10 0 2.5
endloop
endfacet
facet normal 0 0 1
outer loop
vertex 2 9.78489 -2.5
vertex 2 -9.78489 -2.5
vertex 2.5065 -9.6808 -2.5
endloop
endfacet
facet normal 0 0 1
outer loop
vertex 2 9.78489 -2.5
vertex 2.5065 -9.6808 -2.5
vertex 3.4731 -9.3775 -2.5
endloop
endfacet
facet normal 0 0 1
outer loop
vertex 2 9.78489 -2.5
vertex 3.4731 -9.3775 -2.5
vertex 4.4039 -8.978 -2.5
endloop
endfacet
facet normal 0 0 1
outer loop
vertex 2 9.78489 -2.5
vertex 4.4039 -8.978 -2.5
vertex 5.2896 -8.4864 -2.5
endloop
endfacet
facet normal 0 0 1
outer loop
vertex 2 9.78489 -2.5
vertex 5.2896 -8.4864 -2.5
vertex 6.1211 -7.9078 -2.5
endloop
endfacet
facet normal 0 0 1
outer loop
vertex 2 9.78489 -2.5
vertex 6.1211 -7.9078 -2.5
vertex 6.8897 -7.2479 -2.5
endloop
endfacet
facet normal 0 0 1
outer loop
vertex 2 9.78489 -2.5
vertex 6.8897 -7.2479 -2.5
vertex 7.5876 -6.5137 -2.5
endloop
endfacet
facet normal 0 0 1
outer loop
vertex 2 9.78489 -2.5
vertex 7.5876 -6.5137 -2.5
vertex 8.2076 -5.7127 -2.5
endloop
endfacet
facet normal 0 0 1
outer loop
vertex 2 9.78489 -2.5
vertex 8.2076 -5.7127 -2.5
vertex 8.7435 -4.853 -2.5
endloop
endfacet
facet normal 0 0 1
outer loop
vertex 2 9.78489 -2.5
vertex 8.7435 -4.853 -2.5
vertex 9.08174 -4.16348 -2.5
endloop
endfacet
facet normal 0 0 1
outer loop
vertex 2 9.78489 -2.5
vertex 9.08174 -4.16348 -2.5
vertex 2.11987 9.76025 -2.5
endloop
endfacet
facet normal 0 0 1
outer loop
vertex 3.4731 9.3775 -2.5
vertex 2.5065 9.6808 -2.5
vertex 2.11987 9.76025 -2.5
endloop
endfacet
facet normal 0 0 1
outer loop
vertex 3.4731 9.3775 -2.5
vertex 2.11987 9.76025 -2.5
vertex 9.08174 -4.16348 -2.5
endloop
endfacet
facet normal 0 0 1
outer loop
vertex 3.4731 9.3775 -2.5
vertex 9.08174 -4.16348 -2.5
vertex 9.1896 -3.9436 -2.5
endloop
endfacet
facet normal 0 0 1
outer loop
vertex 3.4731 9.3775 -2.5
vertex 9.1896 -3.9436 -2.5
vertex 9.5414 -2.9936 -2.5
endloop
endfacet
facet normal 0 0 1
outer loop
vertex 3.4731 9.3775 -2.5
vertex 9.5414 -2.9936 -2.5
vertex 9.7953 -2.013 -2.5
endloop
endfacet
facet normal 0 0 1
outer loop
vertex 3.4731 9.3775 -2.5
vertex 9.7953 -2.013 -2.5
vertex 9.9487 -1.0117 -2.5
endloop
endfacet
facet normal 0 0 1
outer loop
vertex 3.4731 9.3775 -2.5
vertex 9.9487 -1.0117 -2.5
vertex 10 0 -2.5
endloop
endfacet
facet normal 0 0 1
outer loop
vertex 3.4731 9.3775 -2.5
vertex 10 0 -2.5
vertex 9.9487 1.0117 -2.5
endloop
endfacet
facet normal 0 0 1
outer loop
vertex 3.4731 9.3775 -2.5
vertex 9.9487 1.0117 -2.5
vertex 9.7953 2.013 -2.5
endloop
endfacet
facet normal 0 0 1
outer loop
vertex 3.4731 9.3775 -2.5
vertex 9.7953 2.013 -2.5
vertex 9.5414 2.9936 -2.5
endloop
endfacet
facet normal 0 0 1
outer loop
vertex 3.4731 9.3775 -2.5
vertex 9.5414 2.9936 -2.5
vertex 9.1896 3.9436 -2.5
endloop
endfacet
facet normal 0 0 1
outer loop
vertex 3.4731 9.3775 -2.5
vertex 9.1896 3.9436 -2.5
vertex 8.7435 4.853 -2.5
endloop
endfacet
facet normal 0 0 1
outer loop
vertex 3.4731 9.3775 -2.5
vertex 8.7435 4.853 -2.5
vertex 8.2076 5.7127 -2.5
endloop
endfacet
facet normal 0 0 1
outer loop
vertex 3.4731 9.3775 -2.5
vertex 8.2076 5.7127 -2.5
vertex 7.5876 6.5137 -2.5
endloop
endfacet
facet normal 0 0 1
outer loop
vertex 3.4731 9.3775 -2.5
vertex 7.5876 6.5137 -2.5
vertex 6.8897 7.2479 -2.5
endloop
endfacet
facet normal 0 0 1
outer loop
vertex 3.4731 9.3775 -2.5
vertex 6.8897 7.2479 -2.5
vertex 6.1211 7.9078 -2.5
endloop
endfacet
facet normal 0 0 1
outer loop
vertex 3.4731 9.3775 -2.5
vertex 6.1211 7.9078 -2.5
vertex 5.2896 8.4864 -2.5
endloop
endfacet
facet normal 0 0 1
outer loop
vertex 3.4731 9.3775 -2.5
vertex 5.2896 8.4864 -2.5
vertex 4.4039 8.978 -2.5
endloop
endfacet
endsolid JSxCAD
